<svg width="747" height="738" viewBox="0 0 747 738" fill="none" xmlns="http://www.w3.org/2000/svg">
<rect width="747" height="738" fill="#EAE6FE"/>
<path d="M262.119 564V553.818H265.748C266.54 553.818 267.196 553.962 267.717 554.251C268.237 554.539 268.626 554.933 268.885 555.434C269.143 555.931 269.273 556.491 269.273 557.114C269.273 557.741 269.142 558.304 268.88 558.805C268.621 559.302 268.23 559.696 267.707 559.988C267.186 560.276 266.532 560.42 265.743 560.42H263.247V559.118H265.604C266.104 559.118 266.51 559.032 266.822 558.859C267.133 558.684 267.362 558.445 267.508 558.143C267.654 557.842 267.727 557.499 267.727 557.114C267.727 556.73 267.654 556.388 267.508 556.09C267.362 555.792 267.132 555.558 266.817 555.389C266.505 555.22 266.094 555.136 265.584 555.136H263.655V564H262.119ZM270.954 564V556.364H272.391V557.577H272.471C272.61 557.166 272.855 556.843 273.206 556.607C273.561 556.369 273.962 556.249 274.41 556.249C274.502 556.249 274.612 556.253 274.738 556.259C274.867 556.266 274.968 556.274 275.041 556.284V557.706C274.981 557.689 274.875 557.671 274.723 557.651C274.57 557.628 274.418 557.616 274.265 557.616C273.914 557.616 273.601 557.691 273.326 557.84C273.054 557.986 272.839 558.19 272.68 558.452C272.52 558.71 272.441 559.005 272.441 559.337V564H270.954ZM279.271 564.154C278.555 564.154 277.93 563.99 277.396 563.662C276.863 563.334 276.448 562.875 276.153 562.285C275.858 561.695 275.711 561.005 275.711 560.217C275.711 559.424 275.858 558.732 276.153 558.138C276.448 557.545 276.863 557.085 277.396 556.756C277.93 556.428 278.555 556.264 279.271 556.264C279.987 556.264 280.611 556.428 281.145 556.756C281.679 557.085 282.093 557.545 282.388 558.138C282.683 558.732 282.83 559.424 282.83 560.217C282.83 561.005 282.683 561.695 282.388 562.285C282.093 562.875 281.679 563.334 281.145 563.662C280.611 563.99 279.987 564.154 279.271 564.154ZM279.276 562.906C279.74 562.906 280.124 562.784 280.429 562.538C280.734 562.293 280.959 561.967 281.105 561.559C281.254 561.151 281.329 560.702 281.329 560.212C281.329 559.724 281.254 559.277 281.105 558.869C280.959 558.458 280.734 558.129 280.429 557.88C280.124 557.631 279.74 557.507 279.276 557.507C278.808 557.507 278.42 557.631 278.112 557.88C277.807 558.129 277.58 558.458 277.431 558.869C277.285 559.277 277.212 559.724 277.212 560.212C277.212 560.702 277.285 561.151 277.431 561.559C277.58 561.967 277.807 562.293 278.112 562.538C278.42 562.784 278.808 562.906 279.276 562.906ZM287.691 567.023C287.085 567.023 286.563 566.943 286.125 566.784C285.691 566.625 285.336 566.415 285.061 566.153C284.786 565.891 284.581 565.604 284.445 565.293L285.722 564.766C285.812 564.911 285.931 565.066 286.08 565.228C286.233 565.394 286.438 565.535 286.697 565.651C286.959 565.767 287.295 565.825 287.706 565.825C288.27 565.825 288.735 565.687 289.103 565.412C289.471 565.14 289.655 564.706 289.655 564.109V562.608H289.561C289.471 562.77 289.342 562.951 289.173 563.15C289.007 563.349 288.778 563.521 288.487 563.667C288.195 563.813 287.816 563.886 287.348 563.886C286.745 563.886 286.201 563.745 285.718 563.463C285.237 563.178 284.856 562.759 284.574 562.205C284.296 561.648 284.156 560.964 284.156 560.152C284.156 559.34 284.294 558.644 284.569 558.064C284.847 557.484 285.229 557.04 285.713 556.732C286.196 556.42 286.745 556.264 287.358 556.264C287.832 556.264 288.215 556.344 288.507 556.503C288.798 556.659 289.025 556.841 289.188 557.05C289.353 557.259 289.481 557.442 289.57 557.602H289.68V556.364H291.137V564.169C291.137 564.825 290.984 565.364 290.679 565.785C290.374 566.206 289.962 566.517 289.441 566.719C288.924 566.922 288.341 567.023 287.691 567.023ZM287.676 562.653C288.104 562.653 288.465 562.553 288.76 562.354C289.058 562.152 289.284 561.864 289.436 561.489C289.592 561.112 289.67 560.659 289.67 560.132C289.67 559.618 289.594 559.166 289.441 558.775C289.289 558.384 289.065 558.079 288.77 557.86C288.475 557.638 288.11 557.527 287.676 557.527C287.229 557.527 286.856 557.643 286.558 557.875C286.259 558.104 286.034 558.415 285.882 558.81C285.732 559.204 285.658 559.645 285.658 560.132C285.658 560.633 285.734 561.072 285.887 561.45C286.039 561.827 286.264 562.122 286.563 562.335C286.864 562.547 287.235 562.653 287.676 562.653ZM293.13 564V556.364H294.567V557.577H294.646C294.786 557.166 295.031 556.843 295.382 556.607C295.737 556.369 296.138 556.249 296.585 556.249C296.678 556.249 296.788 556.253 296.914 556.259C297.043 556.266 297.144 556.274 297.217 556.284V557.706C297.157 557.689 297.051 557.671 296.899 557.651C296.746 557.628 296.594 557.616 296.441 557.616C296.09 557.616 295.777 557.691 295.502 557.84C295.23 557.986 295.014 558.19 294.855 558.452C294.696 558.71 294.617 559.005 294.617 559.337V564H293.13ZM300.657 564.169C300.173 564.169 299.736 564.08 299.345 563.901C298.954 563.718 298.644 563.455 298.415 563.11C298.19 562.765 298.077 562.343 298.077 561.842C298.077 561.411 298.16 561.057 298.325 560.778C298.491 560.5 298.715 560.28 298.997 560.117C299.278 559.955 299.593 559.832 299.941 559.749C300.289 559.666 300.644 559.603 301.005 559.56C301.463 559.507 301.834 559.464 302.119 559.431C302.404 559.395 302.611 559.337 302.74 559.257C302.869 559.178 302.934 559.048 302.934 558.869V558.835C302.934 558.4 302.811 558.064 302.566 557.825C302.324 557.587 301.963 557.467 301.482 557.467C300.982 557.467 300.588 557.578 300.299 557.8C300.014 558.019 299.817 558.263 299.708 558.531L298.311 558.213C298.476 557.749 298.718 557.375 299.036 557.089C299.358 556.801 299.727 556.592 300.145 556.463C300.563 556.33 301.002 556.264 301.463 556.264C301.767 556.264 302.091 556.301 302.432 556.374C302.777 556.443 303.098 556.572 303.396 556.761C303.698 556.95 303.945 557.22 304.137 557.572C304.329 557.92 304.426 558.372 304.426 558.929V564H302.974V562.956H302.914C302.818 563.148 302.674 563.337 302.482 563.523C302.289 563.708 302.043 563.862 301.741 563.985C301.439 564.108 301.078 564.169 300.657 564.169ZM300.98 562.976C301.391 562.976 301.743 562.895 302.034 562.732C302.329 562.57 302.553 562.358 302.705 562.096C302.861 561.831 302.939 561.547 302.939 561.246V560.261C302.886 560.314 302.783 560.364 302.631 560.411C302.482 560.454 302.311 560.492 302.119 560.525C301.927 560.555 301.739 560.583 301.557 560.609C301.375 560.633 301.222 560.652 301.1 560.669C300.811 560.705 300.548 560.767 300.309 560.853C300.074 560.939 299.885 561.063 299.742 561.226C299.603 561.385 299.534 561.597 299.534 561.862C299.534 562.23 299.669 562.509 299.941 562.697C300.213 562.883 300.559 562.976 300.98 562.976ZM306.406 564V556.364H307.832V557.607H307.927C308.086 557.186 308.346 556.857 308.707 556.622C309.069 556.384 309.501 556.264 310.005 556.264C310.515 556.264 310.943 556.384 311.288 556.622C311.636 556.861 311.893 557.189 312.058 557.607H312.138C312.32 557.199 312.61 556.874 313.008 556.632C313.406 556.387 313.879 556.264 314.43 556.264C315.122 556.264 315.688 556.481 316.125 556.915C316.566 557.35 316.786 558.004 316.786 558.879V564H315.3V559.018C315.3 558.501 315.159 558.127 314.877 557.895C314.595 557.663 314.259 557.547 313.868 557.547C313.384 557.547 313.008 557.696 312.739 557.994C312.471 558.289 312.337 558.669 312.337 559.133V564H310.855V558.924C310.855 558.51 310.726 558.177 310.467 557.925C310.209 557.673 309.872 557.547 309.458 557.547C309.176 557.547 308.916 557.621 308.678 557.771C308.442 557.916 308.252 558.12 308.106 558.382C307.963 558.644 307.892 558.947 307.892 559.292V564H306.406ZM318.779 564V556.364H320.205V557.607H320.3C320.459 557.186 320.719 556.857 321.08 556.622C321.442 556.384 321.874 556.264 322.378 556.264C322.888 556.264 323.316 556.384 323.661 556.622C324.009 556.861 324.266 557.189 324.431 557.607H324.511C324.693 557.199 324.983 556.874 325.381 556.632C325.779 556.387 326.253 556.264 326.803 556.264C327.495 556.264 328.061 556.481 328.498 556.915C328.939 557.35 329.159 558.004 329.159 558.879V564H327.673V559.018C327.673 558.501 327.532 558.127 327.25 557.895C326.968 557.663 326.632 557.547 326.241 557.547C325.757 557.547 325.381 557.696 325.112 557.994C324.844 558.289 324.71 558.669 324.71 559.133V564H323.228V558.924C323.228 558.51 323.099 558.177 322.84 557.925C322.582 557.673 322.245 557.547 321.831 557.547C321.549 557.547 321.289 557.621 321.051 557.771C320.815 557.916 320.625 558.12 320.479 558.382C320.336 558.644 320.265 558.947 320.265 559.292V564H318.779ZM331.152 564V556.364H332.638V564H331.152ZM331.902 555.185C331.644 555.185 331.422 555.099 331.236 554.927C331.054 554.751 330.963 554.542 330.963 554.3C330.963 554.055 331.054 553.846 331.236 553.674C331.422 553.498 331.644 553.411 331.902 553.411C332.161 553.411 332.381 553.498 332.564 553.674C332.749 553.846 332.842 554.055 332.842 554.3C332.842 554.542 332.749 554.751 332.564 554.927C332.381 555.099 332.161 555.185 331.902 555.185ZM336.124 559.466V564H334.638V556.364H336.065V557.607H336.159C336.335 557.202 336.61 556.877 336.985 556.632C337.362 556.387 337.838 556.264 338.411 556.264C338.932 556.264 339.387 556.374 339.779 556.592C340.17 556.808 340.473 557.129 340.688 557.557C340.904 557.984 341.012 558.513 341.012 559.143V564H339.525V559.322C339.525 558.768 339.381 558.336 339.093 558.024C338.804 557.709 338.408 557.552 337.904 557.552C337.56 557.552 337.253 557.626 336.985 557.776C336.719 557.925 336.509 558.143 336.353 558.432C336.201 558.717 336.124 559.062 336.124 559.466ZM346.207 567.023C345.6 567.023 345.078 566.943 344.641 566.784C344.207 566.625 343.852 566.415 343.577 566.153C343.302 565.891 343.096 565.604 342.96 565.293L344.238 564.766C344.328 564.911 344.447 565.066 344.596 565.228C344.749 565.394 344.954 565.535 345.213 565.651C345.474 565.767 345.811 565.825 346.222 565.825C346.785 565.825 347.251 565.687 347.619 565.412C347.987 565.14 348.171 564.706 348.171 564.109V562.608H348.076C347.987 562.77 347.857 562.951 347.688 563.15C347.523 563.349 347.294 563.521 347.002 563.667C346.711 563.813 346.331 563.886 345.864 563.886C345.261 563.886 344.717 563.745 344.233 563.463C343.753 563.178 343.371 562.759 343.09 562.205C342.811 561.648 342.672 560.964 342.672 560.152C342.672 559.34 342.81 558.644 343.085 558.064C343.363 557.484 343.744 557.04 344.228 556.732C344.712 556.42 345.261 556.264 345.874 556.264C346.348 556.264 346.731 556.344 347.022 556.503C347.314 556.659 347.541 556.841 347.703 557.05C347.869 557.259 347.997 557.442 348.086 557.602H348.195V556.364H349.652V564.169C349.652 564.825 349.5 565.364 349.195 565.785C348.89 566.206 348.477 566.517 347.957 566.719C347.44 566.922 346.856 567.023 346.207 567.023ZM346.192 562.653C346.619 562.653 346.981 562.553 347.276 562.354C347.574 562.152 347.799 561.864 347.952 561.489C348.108 561.112 348.186 560.659 348.186 560.132C348.186 559.618 348.109 559.166 347.957 558.775C347.804 558.384 347.581 558.079 347.286 557.86C346.991 557.638 346.626 557.527 346.192 557.527C345.744 557.527 345.372 557.643 345.073 557.875C344.775 558.104 344.55 558.415 344.397 558.81C344.248 559.204 344.173 559.645 344.173 560.132C344.173 560.633 344.25 561.072 344.402 561.45C344.555 561.827 344.78 562.122 345.078 562.335C345.38 562.547 345.751 562.653 346.192 562.653ZM357.414 550.537V567.281H356.082V550.537H357.414ZM372.431 557.129H370.88C370.82 556.798 370.709 556.506 370.547 556.254C370.384 556.002 370.185 555.789 369.95 555.613C369.715 555.437 369.451 555.305 369.159 555.215C368.871 555.126 368.565 555.081 368.24 555.081C367.653 555.081 367.128 555.228 366.664 555.523C366.203 555.818 365.838 556.251 365.57 556.821C365.305 557.391 365.172 558.087 365.172 558.909C365.172 559.738 365.305 560.437 365.57 561.007C365.838 561.577 366.205 562.008 366.669 562.3C367.133 562.591 367.655 562.737 368.235 562.737C368.556 562.737 368.861 562.694 369.15 562.608C369.441 562.518 369.705 562.388 369.94 562.215C370.175 562.043 370.374 561.832 370.537 561.584C370.702 561.332 370.817 561.044 370.88 560.719L372.431 560.724C372.348 561.224 372.187 561.685 371.949 562.106C371.713 562.523 371.41 562.885 371.039 563.19C370.671 563.491 370.25 563.725 369.776 563.891C369.302 564.056 368.785 564.139 368.225 564.139C367.343 564.139 366.558 563.93 365.868 563.513C365.179 563.092 364.635 562.49 364.238 561.708C363.843 560.926 363.646 559.993 363.646 558.909C363.646 557.822 363.845 556.889 364.243 556.11C364.64 555.328 365.184 554.728 365.873 554.31C366.563 553.889 367.346 553.679 368.225 553.679C368.765 553.679 369.269 553.757 369.736 553.913C370.207 554.065 370.629 554.29 371.004 554.589C371.378 554.884 371.688 555.245 371.934 555.673C372.179 556.097 372.345 556.582 372.431 557.129ZM377.366 564.154C376.65 564.154 376.026 563.99 375.492 563.662C374.958 563.334 374.544 562.875 374.249 562.285C373.954 561.695 373.807 561.005 373.807 560.217C373.807 559.424 373.954 558.732 374.249 558.138C374.544 557.545 374.958 557.085 375.492 556.756C376.026 556.428 376.65 556.264 377.366 556.264C378.082 556.264 378.707 556.428 379.241 556.756C379.774 557.085 380.189 557.545 380.483 558.138C380.778 558.732 380.926 559.424 380.926 560.217C380.926 561.005 380.778 561.695 380.483 562.285C380.189 562.875 379.774 563.334 379.241 563.662C378.707 563.99 378.082 564.154 377.366 564.154ZM377.371 562.906C377.835 562.906 378.22 562.784 378.525 562.538C378.83 562.293 379.055 561.967 379.201 561.559C379.35 561.151 379.425 560.702 379.425 560.212C379.425 559.724 379.35 559.277 379.201 558.869C379.055 558.458 378.83 558.129 378.525 557.88C378.22 557.631 377.835 557.507 377.371 557.507C376.904 557.507 376.516 557.631 376.208 557.88C375.903 558.129 375.676 558.458 375.527 558.869C375.381 559.277 375.308 559.724 375.308 560.212C375.308 560.702 375.381 561.151 375.527 561.559C375.676 561.967 375.903 562.293 376.208 562.538C376.516 562.784 376.904 562.906 377.371 562.906ZM385.444 564.149C384.827 564.149 384.277 563.992 383.793 563.677C383.313 563.359 382.935 562.906 382.66 562.32C382.388 561.73 382.252 561.022 382.252 560.197C382.252 559.371 382.39 558.665 382.665 558.079C382.943 557.492 383.324 557.043 383.808 556.732C384.292 556.42 384.841 556.264 385.454 556.264C385.928 556.264 386.309 556.344 386.597 556.503C386.889 556.659 387.114 556.841 387.273 557.05C387.436 557.259 387.562 557.442 387.651 557.602H387.741V553.818H389.227V564H387.776V562.812H387.651C387.562 562.974 387.433 563.16 387.263 563.369C387.098 563.577 386.869 563.76 386.577 563.915C386.286 564.071 385.908 564.149 385.444 564.149ZM385.772 562.881C386.2 562.881 386.561 562.769 386.856 562.543C387.154 562.315 387.379 561.998 387.532 561.594C387.688 561.189 387.766 560.719 387.766 560.182C387.766 559.652 387.689 559.187 387.537 558.79C387.384 558.392 387.161 558.082 386.866 557.86C386.571 557.638 386.206 557.527 385.772 557.527C385.325 557.527 384.952 557.643 384.653 557.875C384.355 558.107 384.13 558.424 383.977 558.825C383.828 559.226 383.754 559.678 383.754 560.182C383.754 560.692 383.83 561.151 383.982 561.559C384.135 561.967 384.36 562.29 384.658 562.528C384.96 562.764 385.331 562.881 385.772 562.881ZM391.349 564V556.364H392.835V564H391.349ZM392.1 555.185C391.841 555.185 391.619 555.099 391.433 554.927C391.251 554.751 391.16 554.542 391.16 554.3C391.16 554.055 391.251 553.846 391.433 553.674C391.619 553.498 391.841 553.411 392.1 553.411C392.358 553.411 392.579 553.498 392.761 553.674C392.946 553.846 393.039 554.055 393.039 554.3C393.039 554.542 392.946 554.751 392.761 554.927C392.579 555.099 392.358 555.185 392.1 555.185ZM396.322 559.466V564H394.835V556.364H396.262V557.607H396.357C396.532 557.202 396.807 556.877 397.182 556.632C397.56 556.387 398.035 556.264 398.609 556.264C399.129 556.264 399.585 556.374 399.976 556.592C400.367 556.808 400.67 557.129 400.886 557.557C401.101 557.984 401.209 558.513 401.209 559.143V564H399.722V559.322C399.722 558.768 399.578 558.336 399.29 558.024C399.001 557.709 398.605 557.552 398.102 557.552C397.757 557.552 397.45 557.626 397.182 557.776C396.917 557.925 396.706 558.143 396.55 558.432C396.398 558.717 396.322 559.062 396.322 559.466ZM406.404 567.023C405.798 567.023 405.276 566.943 404.838 566.784C404.404 566.625 404.049 566.415 403.774 566.153C403.499 565.891 403.294 565.604 403.158 565.293L404.435 564.766C404.525 564.911 404.644 565.066 404.793 565.228C404.946 565.394 405.151 565.535 405.41 565.651C405.672 565.767 406.008 565.825 406.419 565.825C406.982 565.825 407.448 565.687 407.816 565.412C408.184 565.14 408.368 564.706 408.368 564.109V562.608H408.273C408.184 562.77 408.055 562.951 407.886 563.15C407.72 563.349 407.491 563.521 407.2 563.667C406.908 563.813 406.528 563.886 406.061 563.886C405.458 563.886 404.914 563.745 404.43 563.463C403.95 563.178 403.569 562.759 403.287 562.205C403.009 561.648 402.869 560.964 402.869 560.152C402.869 559.34 403.007 558.644 403.282 558.064C403.56 557.484 403.942 557.04 404.425 556.732C404.909 556.42 405.458 556.264 406.071 556.264C406.545 556.264 406.928 556.344 407.219 556.503C407.511 556.659 407.738 556.841 407.901 557.05C408.066 557.259 408.194 557.442 408.283 557.602H408.393V556.364H409.849V564.169C409.849 564.825 409.697 565.364 409.392 565.785C409.087 566.206 408.674 566.517 408.154 566.719C407.637 566.922 407.054 567.023 406.404 567.023ZM406.389 562.653C406.817 562.653 407.178 562.553 407.473 562.354C407.771 562.152 407.997 561.864 408.149 561.489C408.305 561.112 408.383 560.659 408.383 560.132C408.383 559.618 408.307 559.166 408.154 558.775C408.002 558.384 407.778 558.079 407.483 557.86C407.188 557.638 406.823 557.527 406.389 557.527C405.942 557.527 405.569 557.643 405.271 557.875C404.972 558.104 404.747 558.415 404.594 558.81C404.445 559.204 404.371 559.645 404.371 560.132C404.371 560.633 404.447 561.072 404.599 561.45C404.752 561.827 404.977 562.122 405.276 562.335C405.577 562.547 405.948 562.653 406.389 562.653ZM413.906 550.537V567.281H412.574V550.537H413.906ZM420.466 564V553.818H422.002V562.678H426.616V564H420.466ZM431.54 564.154C430.788 564.154 430.14 563.993 429.597 563.672C429.056 563.347 428.639 562.891 428.344 562.305C428.052 561.715 427.906 561.024 427.906 560.232C427.906 559.449 428.052 558.76 428.344 558.163C428.639 557.567 429.05 557.101 429.577 556.766C430.107 556.432 430.727 556.264 431.436 556.264C431.867 556.264 432.285 556.335 432.689 556.478C433.093 556.621 433.456 556.844 433.778 557.149C434.099 557.454 434.353 557.85 434.538 558.337C434.724 558.821 434.817 559.41 434.817 560.102V560.629H428.746V559.516H433.36C433.36 559.125 433.281 558.778 433.121 558.477C432.962 558.172 432.739 557.931 432.45 557.756C432.165 557.58 431.83 557.492 431.446 557.492C431.028 557.492 430.664 557.595 430.352 557.8C430.044 558.003 429.805 558.268 429.636 558.596C429.471 558.921 429.388 559.274 429.388 559.655V560.525C429.388 561.035 429.477 561.469 429.656 561.827C429.839 562.185 430.092 562.459 430.417 562.648C430.742 562.833 431.121 562.926 431.555 562.926C431.837 562.926 432.094 562.886 432.326 562.807C432.558 562.724 432.759 562.601 432.928 562.439C433.097 562.277 433.226 562.076 433.315 561.837L434.722 562.091C434.61 562.505 434.407 562.868 434.116 563.18C433.827 563.488 433.464 563.728 433.027 563.901C432.593 564.07 432.097 564.154 431.54 564.154ZM438.688 564.169C438.204 564.169 437.767 564.08 437.376 563.901C436.985 563.718 436.675 563.455 436.446 563.11C436.221 562.765 436.108 562.343 436.108 561.842C436.108 561.411 436.191 561.057 436.357 560.778C436.522 560.5 436.746 560.28 437.028 560.117C437.31 559.955 437.624 559.832 437.972 559.749C438.32 559.666 438.675 559.603 439.036 559.56C439.494 559.507 439.865 559.464 440.15 559.431C440.435 559.395 440.642 559.337 440.771 559.257C440.901 559.178 440.965 559.048 440.965 558.869V558.835C440.965 558.4 440.843 558.064 440.597 557.825C440.356 557.587 439.994 557.467 439.514 557.467C439.013 557.467 438.619 557.578 438.33 557.8C438.045 558.019 437.848 558.263 437.739 558.531L436.342 558.213C436.508 557.749 436.749 557.375 437.068 557.089C437.389 556.801 437.759 556.592 438.176 556.463C438.594 556.33 439.033 556.264 439.494 556.264C439.799 556.264 440.122 556.301 440.463 556.374C440.808 556.443 441.129 556.572 441.428 556.761C441.729 556.95 441.976 557.22 442.169 557.572C442.361 557.92 442.457 558.372 442.457 558.929V564H441.005V562.956H440.945C440.849 563.148 440.705 563.337 440.513 563.523C440.321 563.708 440.074 563.862 439.772 563.985C439.471 564.108 439.109 564.169 438.688 564.169ZM439.012 562.976C439.423 562.976 439.774 562.895 440.066 562.732C440.36 562.57 440.584 562.358 440.737 562.096C440.892 561.831 440.97 561.547 440.97 561.246V560.261C440.917 560.314 440.815 560.364 440.662 560.411C440.513 560.454 440.342 560.492 440.15 560.525C439.958 560.555 439.771 560.583 439.588 560.609C439.406 560.633 439.253 560.652 439.131 560.669C438.843 560.705 438.579 560.767 438.34 560.853C438.105 560.939 437.916 561.063 437.774 561.226C437.634 561.385 437.565 561.597 437.565 561.862C437.565 562.23 437.701 562.509 437.972 562.697C438.244 562.883 438.591 562.976 439.012 562.976ZM444.437 564V556.364H445.874V557.577H445.953C446.092 557.166 446.338 556.843 446.689 556.607C447.044 556.369 447.445 556.249 447.892 556.249C447.985 556.249 448.094 556.253 448.22 556.259C448.349 556.266 448.451 556.274 448.523 556.284V557.706C448.464 557.689 448.358 557.671 448.205 557.651C448.053 557.628 447.9 557.616 447.748 557.616C447.397 557.616 447.083 557.691 446.808 557.84C446.536 557.986 446.321 558.19 446.162 558.452C446.003 558.71 445.923 559.005 445.923 559.337V564H444.437ZM451.296 559.466V564H449.81V556.364H451.237V557.607H451.331C451.507 557.202 451.782 556.877 452.156 556.632C452.534 556.387 453.01 556.264 453.583 556.264C454.104 556.264 454.559 556.374 454.95 556.592C455.342 556.808 455.645 557.129 455.86 557.557C456.076 557.984 456.183 558.513 456.183 559.143V564H454.697V559.322C454.697 558.768 454.553 558.336 454.264 558.024C453.976 557.709 453.58 557.552 453.076 557.552C452.731 557.552 452.425 557.626 452.156 557.776C451.891 557.925 451.681 558.143 451.525 558.432C451.373 558.717 451.296 559.062 451.296 559.466ZM458.177 564V556.364H459.664V564H458.177ZM458.928 555.185C458.669 555.185 458.447 555.099 458.262 554.927C458.079 554.751 457.988 554.542 457.988 554.3C457.988 554.055 458.079 553.846 458.262 553.674C458.447 553.498 458.669 553.411 458.928 553.411C459.186 553.411 459.407 553.498 459.589 553.674C459.775 553.846 459.867 554.055 459.867 554.3C459.867 554.542 459.775 554.751 459.589 554.927C459.407 555.099 459.186 555.185 458.928 555.185ZM463.15 559.466V564H461.663V556.364H463.09V557.607H463.185C463.36 557.202 463.635 556.877 464.01 556.632C464.388 556.387 464.863 556.264 465.437 556.264C465.957 556.264 466.413 556.374 466.804 556.592C467.195 556.808 467.498 557.129 467.714 557.557C467.929 557.984 468.037 558.513 468.037 559.143V564H466.55V559.322C466.55 558.768 466.406 558.336 466.118 558.024C465.83 557.709 465.433 557.552 464.93 557.552C464.585 557.552 464.278 557.626 464.01 557.776C463.745 557.925 463.534 558.143 463.379 558.432C463.226 558.717 463.15 559.062 463.15 559.466ZM473.232 567.023C472.626 567.023 472.104 566.943 471.666 566.784C471.232 566.625 470.877 566.415 470.602 566.153C470.327 565.891 470.122 565.604 469.986 565.293L471.263 564.766C471.353 564.911 471.472 565.066 471.621 565.228C471.774 565.394 471.979 565.535 472.238 565.651C472.5 565.767 472.836 565.825 473.247 565.825C473.811 565.825 474.276 565.687 474.644 565.412C475.012 565.14 475.196 564.706 475.196 564.109V562.608H475.102C475.012 562.77 474.883 562.951 474.714 563.15C474.548 563.349 474.319 563.521 474.028 563.667C473.736 563.813 473.357 563.886 472.889 563.886C472.286 563.886 471.742 563.745 471.259 563.463C470.778 563.178 470.397 562.759 470.115 562.205C469.837 561.648 469.697 560.964 469.697 560.152C469.697 559.34 469.835 558.644 470.11 558.064C470.388 557.484 470.77 557.04 471.254 556.732C471.737 556.42 472.286 556.264 472.899 556.264C473.373 556.264 473.756 556.344 474.048 556.503C474.339 556.659 474.566 556.841 474.729 557.05C474.894 557.259 475.022 557.442 475.112 557.602H475.221V556.364H476.678V564.169C476.678 564.825 476.525 565.364 476.22 565.785C475.915 566.206 475.503 566.517 474.982 566.719C474.465 566.922 473.882 567.023 473.232 567.023ZM473.217 562.653C473.645 562.653 474.006 562.553 474.301 562.354C474.599 562.152 474.825 561.864 474.977 561.489C475.133 561.112 475.211 560.659 475.211 560.132C475.211 559.618 475.135 559.166 474.982 558.775C474.83 558.384 474.606 558.079 474.311 557.86C474.016 557.638 473.652 557.527 473.217 557.527C472.77 557.527 472.397 557.643 472.099 557.875C471.8 558.104 471.575 558.415 471.423 558.81C471.273 559.204 471.199 559.645 471.199 560.132C471.199 560.633 471.275 561.072 471.428 561.45C471.58 561.827 471.805 562.122 472.104 562.335C472.405 562.547 472.777 562.653 473.217 562.653ZM479.651 564.094C479.379 564.094 479.145 563.998 478.95 563.806C478.754 563.611 478.656 563.375 478.656 563.1C478.656 562.828 478.754 562.596 478.95 562.404C479.145 562.209 479.379 562.111 479.651 562.111C479.922 562.111 480.156 562.209 480.352 562.404C480.547 562.596 480.645 562.828 480.645 563.1C480.645 563.282 480.598 563.45 480.506 563.602C480.416 563.751 480.297 563.871 480.148 563.96C479.999 564.05 479.833 564.094 479.651 564.094Z" fill="#7D7D7D"/>
<path d="M293.415 526.222H290.756C290.653 525.653 290.463 525.153 290.185 524.722C289.906 524.29 289.565 523.923 289.162 523.622C288.759 523.321 288.307 523.094 287.807 522.94C287.313 522.787 286.787 522.71 286.23 522.71C285.224 522.71 284.324 522.963 283.528 523.469C282.739 523.974 282.114 524.716 281.653 525.693C281.199 526.67 280.972 527.864 280.972 529.273C280.972 530.693 281.199 531.892 281.653 532.869C282.114 533.847 282.741 534.585 283.537 535.085C284.332 535.585 285.227 535.835 286.222 535.835C286.773 535.835 287.295 535.761 287.79 535.614C288.29 535.46 288.741 535.236 289.145 534.94C289.548 534.645 289.889 534.284 290.168 533.858C290.452 533.426 290.648 532.932 290.756 532.375L293.415 532.384C293.273 533.241 292.997 534.031 292.588 534.753C292.185 535.469 291.665 536.088 291.028 536.611C290.398 537.128 289.676 537.528 288.864 537.812C288.051 538.097 287.165 538.239 286.205 538.239C284.693 538.239 283.347 537.881 282.165 537.165C280.983 536.443 280.051 535.412 279.369 534.071C278.693 532.73 278.355 531.131 278.355 529.273C278.355 527.409 278.696 525.81 279.378 524.474C280.06 523.134 280.991 522.105 282.173 521.389C283.355 520.668 284.699 520.307 286.205 520.307C287.131 520.307 287.994 520.44 288.795 520.707C289.602 520.969 290.327 521.355 290.969 521.866C291.611 522.372 292.142 522.991 292.562 523.724C292.983 524.452 293.267 525.284 293.415 526.222ZM301.876 538.264C300.648 538.264 299.577 537.983 298.663 537.42C297.748 536.858 297.038 536.071 296.532 535.06C296.026 534.048 295.773 532.866 295.773 531.514C295.773 530.156 296.026 528.969 296.532 527.952C297.038 526.935 297.748 526.145 298.663 525.582C299.577 525.02 300.648 524.739 301.876 524.739C303.103 524.739 304.174 525.02 305.089 525.582C306.004 526.145 306.714 526.935 307.219 527.952C307.725 528.969 307.978 530.156 307.978 531.514C307.978 532.866 307.725 534.048 307.219 535.06C306.714 536.071 306.004 536.858 305.089 537.42C304.174 537.983 303.103 538.264 301.876 538.264ZM301.884 536.125C302.68 536.125 303.339 535.915 303.862 535.494C304.384 535.074 304.771 534.514 305.021 533.815C305.276 533.116 305.404 532.347 305.404 531.506C305.404 530.67 305.276 529.903 305.021 529.205C304.771 528.5 304.384 527.935 303.862 527.509C303.339 527.082 302.68 526.869 301.884 526.869C301.083 526.869 300.418 527.082 299.89 527.509C299.367 527.935 298.978 528.5 298.722 529.205C298.472 529.903 298.347 530.67 298.347 531.506C298.347 532.347 298.472 533.116 298.722 533.815C298.978 534.514 299.367 535.074 299.89 535.494C300.418 535.915 301.083 536.125 301.884 536.125ZM315.723 538.256C314.666 538.256 313.723 537.986 312.893 537.446C312.07 536.901 311.422 536.125 310.95 535.119C310.484 534.108 310.251 532.895 310.251 531.48C310.251 530.065 310.487 528.855 310.959 527.849C311.436 526.844 312.089 526.074 312.919 525.54C313.749 525.006 314.689 524.739 315.74 524.739C316.553 524.739 317.206 524.875 317.7 525.148C318.2 525.415 318.587 525.727 318.859 526.085C319.138 526.443 319.354 526.759 319.507 527.031H319.661V520.545H322.209V538H319.72V535.963H319.507C319.354 536.241 319.132 536.56 318.842 536.918C318.558 537.276 318.166 537.588 317.666 537.855C317.166 538.122 316.518 538.256 315.723 538.256ZM316.286 536.082C317.018 536.082 317.638 535.889 318.143 535.503C318.655 535.111 319.041 534.568 319.303 533.875C319.57 533.182 319.703 532.375 319.703 531.455C319.703 530.545 319.572 529.75 319.311 529.068C319.05 528.386 318.666 527.855 318.161 527.474C317.655 527.094 317.03 526.903 316.286 526.903C315.518 526.903 314.879 527.102 314.368 527.5C313.857 527.898 313.47 528.44 313.209 529.128C312.953 529.815 312.825 530.591 312.825 531.455C312.825 532.33 312.956 533.116 313.217 533.815C313.479 534.514 313.865 535.068 314.376 535.477C314.893 535.881 315.53 536.082 316.286 536.082ZM331.488 538.264C330.198 538.264 329.087 537.989 328.156 537.438C327.229 536.881 326.513 536.099 326.008 535.094C325.508 534.082 325.258 532.898 325.258 531.54C325.258 530.199 325.508 529.017 326.008 527.994C326.513 526.972 327.218 526.173 328.121 525.599C329.031 525.026 330.093 524.739 331.309 524.739C332.048 524.739 332.763 524.861 333.457 525.105C334.15 525.349 334.772 525.733 335.323 526.256C335.874 526.778 336.309 527.457 336.627 528.293C336.945 529.122 337.104 530.131 337.104 531.318V532.222H326.698V530.312H334.607C334.607 529.642 334.471 529.048 334.198 528.531C333.925 528.009 333.542 527.597 333.048 527.295C332.559 526.994 331.985 526.844 331.326 526.844C330.61 526.844 329.985 527.02 329.451 527.372C328.923 527.719 328.513 528.173 328.224 528.736C327.94 529.293 327.798 529.898 327.798 530.551V532.043C327.798 532.918 327.951 533.662 328.258 534.276C328.57 534.889 329.005 535.358 329.562 535.682C330.119 536 330.769 536.159 331.513 536.159C331.996 536.159 332.437 536.091 332.835 535.955C333.232 535.812 333.576 535.602 333.866 535.324C334.156 535.045 334.377 534.702 334.531 534.293L336.942 534.727C336.749 535.437 336.403 536.06 335.903 536.594C335.408 537.122 334.786 537.534 334.036 537.83C333.292 538.119 332.442 538.264 331.488 538.264ZM349.906 538L345.065 520.545H347.835L351.235 534.062H351.397L354.934 520.545H357.678L361.215 534.071H361.377L364.769 520.545H367.548L362.698 538H360.048L356.374 524.926H356.238L352.565 538H349.906ZM369.744 538V524.909H372.293V538H369.744ZM371.031 522.889C370.588 522.889 370.207 522.741 369.889 522.446C369.577 522.145 369.42 521.787 369.42 521.372C369.42 520.952 369.577 520.594 369.889 520.298C370.207 519.997 370.588 519.847 371.031 519.847C371.474 519.847 371.852 519.997 372.165 520.298C372.483 520.594 372.642 520.952 372.642 521.372C372.642 521.787 372.483 522.145 372.165 522.446C371.852 522.741 371.474 522.889 371.031 522.889ZM381.832 524.909V526.955H374.681V524.909H381.832ZM376.599 521.773H379.147V534.156C379.147 534.651 379.221 535.023 379.369 535.273C379.516 535.517 379.707 535.685 379.94 535.776C380.178 535.861 380.437 535.903 380.715 535.903C380.92 535.903 381.099 535.889 381.252 535.861C381.406 535.832 381.525 535.81 381.61 535.793L382.07 537.898C381.923 537.955 381.712 538.011 381.44 538.068C381.167 538.131 380.826 538.165 380.417 538.17C379.746 538.182 379.121 538.062 378.542 537.812C377.962 537.562 377.494 537.176 377.136 536.653C376.778 536.131 376.599 535.474 376.599 534.685V521.773ZM387.48 530.227V538H384.932V520.545H387.446V527.04H387.608C387.915 526.335 388.384 525.776 389.014 525.361C389.645 524.946 390.469 524.739 391.486 524.739C392.384 524.739 393.168 524.923 393.838 525.293C394.514 525.662 395.037 526.213 395.406 526.946C395.781 527.673 395.969 528.582 395.969 529.673V538H393.42V529.98C393.42 529.02 393.173 528.276 392.679 527.747C392.185 527.213 391.497 526.946 390.616 526.946C390.014 526.946 389.474 527.074 388.997 527.33C388.526 527.585 388.153 527.96 387.881 528.455C387.614 528.943 387.48 529.534 387.48 530.227ZM405.925 520.545H409.121L414.678 534.114H414.883L420.44 520.545H423.636V538H421.13V525.369H420.968L415.82 537.974H413.741L408.593 525.361H408.431V538H405.925V520.545ZM427.26 538V524.909H429.808V538H427.26ZM428.547 522.889C428.104 522.889 427.723 522.741 427.405 522.446C427.092 522.145 426.936 521.787 426.936 521.372C426.936 520.952 427.092 520.594 427.405 520.298C427.723 519.997 428.104 519.847 428.547 519.847C428.99 519.847 429.368 519.997 429.68 520.298C429.999 520.594 430.158 520.952 430.158 521.372C430.158 521.787 429.999 522.145 429.68 522.446C429.368 522.741 428.99 522.889 428.547 522.889ZM435.785 520.545V538H433.237V520.545H435.785ZM443.023 538.29C442.193 538.29 441.443 538.136 440.773 537.83C440.102 537.517 439.571 537.065 439.179 536.474C438.793 535.884 438.599 535.159 438.599 534.301C438.599 533.562 438.741 532.955 439.026 532.477C439.31 532 439.693 531.622 440.176 531.344C440.659 531.065 441.199 530.855 441.795 530.713C442.392 530.571 443 530.463 443.619 530.389C444.403 530.298 445.04 530.224 445.528 530.168C446.017 530.105 446.372 530.006 446.594 529.869C446.815 529.733 446.926 529.511 446.926 529.205V529.145C446.926 528.401 446.716 527.824 446.295 527.415C445.881 527.006 445.261 526.801 444.438 526.801C443.58 526.801 442.903 526.991 442.409 527.372C441.92 527.747 441.582 528.165 441.395 528.625L439 528.08C439.284 527.284 439.699 526.642 440.244 526.153C440.795 525.659 441.429 525.301 442.145 525.08C442.861 524.852 443.614 524.739 444.403 524.739C444.926 524.739 445.48 524.801 446.065 524.926C446.656 525.045 447.207 525.267 447.719 525.591C448.236 525.915 448.659 526.378 448.989 526.98C449.318 527.577 449.483 528.352 449.483 529.307V538H446.994V536.21H446.892C446.727 536.54 446.48 536.864 446.151 537.182C445.821 537.5 445.398 537.764 444.881 537.974C444.364 538.185 443.744 538.29 443.023 538.29ZM443.577 536.244C444.281 536.244 444.884 536.105 445.384 535.827C445.889 535.548 446.273 535.185 446.534 534.736C446.801 534.281 446.935 533.795 446.935 533.278V531.591C446.844 531.682 446.668 531.767 446.406 531.847C446.151 531.92 445.858 531.986 445.528 532.043C445.199 532.094 444.878 532.142 444.565 532.188C444.253 532.227 443.991 532.261 443.781 532.29C443.287 532.352 442.835 532.457 442.426 532.605C442.023 532.753 441.699 532.966 441.455 533.244C441.216 533.517 441.097 533.881 441.097 534.335C441.097 534.966 441.33 535.443 441.795 535.767C442.261 536.085 442.855 536.244 443.577 536.244ZM455.425 530.227V538H452.877V524.909H455.323V527.04H455.485C455.786 526.347 456.258 525.79 456.9 525.369C457.548 524.949 458.363 524.739 459.346 524.739C460.238 524.739 461.019 524.926 461.69 525.301C462.36 525.67 462.88 526.222 463.249 526.955C463.619 527.687 463.803 528.594 463.803 529.673V538H461.255V529.98C461.255 529.031 461.008 528.29 460.513 527.756C460.019 527.216 459.34 526.946 458.477 526.946C457.886 526.946 457.36 527.074 456.9 527.33C456.445 527.585 456.085 527.96 455.817 528.455C455.556 528.943 455.425 529.534 455.425 530.227Z" fill="#070320"/>
<path d="M403.521 251.329C400.901 254.289 391.88 264.224 389.059 268.003C370.911 241.611 367.338 238.81 352.988 238.81C327.762 238.942 301.508 248.089 280.27 261.299C266.182 270.075 265.025 274.469 263.392 288.08C262.176 297.55 261.518 307.083 261.422 316.63C262.052 312.096 290.516 313.036 290.516 318.264C290.584 309.654 291.367 289.577 291.843 285.017C293.715 284.337 296.233 283.418 298.99 282.465C304.035 278.015 308.797 273.253 313.248 268.207C314.968 276.514 316.015 284.947 316.378 293.423C328.054 287.822 342.57 287.127 355.41 289.748C355.58 289.271 355.784 288.761 355.947 288.284C356.022 281.709 355.635 275.137 354.79 268.616C358.569 274.612 372.68 294.085 378.073 299.378C386.849 308.021 394.371 307.238 402.846 297.336C410.166 288.865 416.993 279.98 423.294 270.725C424.454 257.954 411.652 249.205 403.521 251.329Z" fill="#FECFC4"/>
<path d="M400.732 425.319C399.242 423.337 398.517 420.884 398.691 418.411C392.318 417.066 385.801 416.529 379.294 416.812C378.098 424.334 377.374 431.446 376.81 435.259C378.375 430.223 425.472 444.175 426.492 450.368C426.747 441.434 407.54 434.261 400.732 425.319Z" fill="#FECFC4"/>
<path d="M485.226 171.973C477.23 164.351 484.886 156.728 481.789 148.765C490.943 152.406 497.136 161.764 493.019 170.578L485.226 171.973Z" fill="#FECFC4"/>
<path d="M248.045 407.794C239.425 409.601 234.254 411.152 230.554 411.98C236.509 411.98 239.639 460.641 233.718 464.929C242.471 461.246 241.842 441.551 245.36 433.35C245.874 431.896 246.755 430.599 247.918 429.586C249.08 428.572 250.485 427.876 251.996 427.565C251.767 420.803 250.432 414.124 248.045 407.794Z" fill="#FECFC4"/>
<path d="M443.745 216.449C435.204 209.541 423.157 217.062 423.736 226.283C425.584 226.324 427.408 226.717 429.109 227.44C430.117 229.097 430.69 230.981 430.776 232.919C431.751 234.682 432.693 236.463 433.601 238.262C444.936 241.699 454.975 225.51 443.745 216.449Z" fill="#FECFC4"/>
<path d="M408.661 230.299L405.975 227.372L403.661 220.226C394.847 216.449 380.019 223.97 380.623 238.874C381.16 251.839 393.792 257.114 400.324 255.004C401.719 253.439 402.876 252.138 403.591 251.329C404.355 251.119 405.147 251.027 405.939 251.057C406.279 244.693 405.326 241.256 405.326 238.024C405.326 236.73 406.858 234.348 408.661 230.299Z" fill="#FECFC4"/>
<path d="M471.887 204.709L381.574 183.242C375.653 182.153 372.216 184.637 370.515 189.061L363.877 206.152C365.792 221.465 365.609 228.495 364.186 230.236C362.96 231.733 360.136 232.448 356.733 231.937C357.081 234.307 357.546 236.658 358.128 238.981C359.387 239.089 360.639 239.282 361.872 239.56L380.417 191.233L467.225 212.297L439.866 290.496L414.582 282.873C412.502 285.582 410.381 288.259 408.219 290.904L440.036 300.466C444.902 301.929 449.598 300.364 451.742 294.477L478.659 217.061C480.497 211.753 479.952 206.682 471.887 204.709ZM461.951 255.003C461.784 255.609 461.435 256.149 460.95 256.549C460.466 256.949 459.869 257.19 459.243 257.239C458.722 257.28 458.199 257.188 457.724 256.971C457.249 256.753 456.838 256.417 456.529 255.996C456.221 255.574 456.025 255.08 455.962 254.562C455.898 254.043 455.968 253.517 456.166 253.033C456.332 252.427 456.682 251.888 457.166 251.488C457.651 251.088 458.247 250.847 458.874 250.798C459.395 250.756 459.917 250.849 460.393 251.066C460.868 251.284 461.279 251.619 461.587 252.041C461.896 252.463 462.091 252.956 462.155 253.475C462.219 253.994 462.148 254.52 461.951 255.003Z" fill="#6153BD"/>
<path d="M412.609 234.586L420.163 242.855C416.25 244.557 411.962 241.091 412.609 234.586Z" fill="#6153BD"/>
<path d="M423.362 232C422.409 231.762 420.299 231.388 417.81 231.014L423.362 237.071C423.498 235.384 423.498 233.688 423.362 232Z" fill="#6153BD"/>
<path d="M398.725 418.377C404.578 419.738 406.143 421.576 406.143 422.937C406.143 424.672 403.278 425.285 400.77 425.285C399.289 423.299 398.564 420.85 398.725 418.377Z" fill="#6153BD"/>
<path d="M379.294 416.812C378.852 419.806 378.478 422.29 378.205 424.434C374.19 423.651 371.625 421.948 371.774 420.078C371.899 418.511 374.02 417.186 379.294 416.812Z" fill="#6153BD"/>
<path d="M242.293 402.043C243.862 401.646 246.037 403.03 248.044 407.828C244.462 408.611 241.749 409.261 239.537 409.798C238.993 405.616 240.493 402.498 242.293 402.043Z" fill="#6153BD"/>
<path d="M251.992 427.565C250.488 427.892 249.091 428.594 247.931 429.605C246.771 430.616 245.885 431.904 245.356 433.35C246.072 435.59 247.987 437.96 249.739 436.71C251.016 435.8 252.114 432.968 251.992 427.565Z" fill="#6153BD"/>
<path d="M346.831 316.902C346.218 325.58 346.66 346.235 346.831 353.517C343.428 352.428 340.433 351.51 338.187 350.897C341.522 337.184 344.176 326.396 346.831 316.902Z" fill="#6153BD"/>
<path d="M261.452 316.562C261.247 318.059 264.038 319.625 268.078 319.829C268.442 319.551 268.734 319.19 268.929 318.774C269.243 317.137 269.355 315.47 269.269 313.806C263.868 314.18 261.622 315.371 261.452 316.562Z" fill="#6153BD"/>
<path d="M290.509 317.882C290.21 316.748 288.422 315.53 284.566 314.759C284.668 316.256 284.737 318.434 284.839 320.848C287.092 320.778 291.046 319.92 290.509 317.882Z" fill="#6153BD"/>
<path d="M313.278 268.173C313.891 271.1 314.469 274.332 314.946 277.665C309.573 278.987 304.268 280.578 299.054 282.429C304.072 277.962 308.822 273.202 313.278 268.173Z" fill="#6153BD"/>
<path d="M360.408 276.816C358.888 280.619 357.413 284.44 355.984 288.279C356.058 281.703 355.672 275.131 354.827 268.61C355.78 270.146 357.85 273.209 360.408 276.816Z" fill="#6153BD"/>
<path d="M404.997 439.572C391.964 435.388 377.679 432.52 376.81 435.255C375.66 438.916 388.715 444.225 401.728 447.841C413.012 450.978 424.273 452.845 426.202 451.261C429.915 448.217 409.61 441.053 404.997 439.572Z" fill="#6153BD"/>
<path d="M236.567 436.131C235.733 423.709 233.474 412.017 230.519 412.017C226.925 412.001 225.683 423.947 226.115 436.523C226.597 450.493 229.144 465.238 232.833 465.238C238.032 464.08 236.922 441.4 236.567 436.131Z" fill="#6153BD"/>
<path d="M491.658 324.083C482.686 322.325 473.398 323.19 464.904 326.574C456.41 329.957 449.071 335.715 443.765 343.16C438.46 350.606 435.412 359.423 434.986 368.556C434.56 377.689 436.774 386.751 441.363 394.659C466.715 378.801 484.206 353.348 491.658 324.083Z" fill="#6153BD"/>
<path d="M356.461 227.27C360 229.822 363.267 231.489 364.356 229.89C363.301 232 361.089 232.612 356.801 231.932C356.638 230.382 356.525 228.827 356.461 227.27Z" fill="#6153BD"/>
<path d="M368.371 191.404C366.465 188.988 363.164 187.524 358.094 188.069C360.34 169.523 333.899 166.869 332.879 182.386C319.369 171.871 297.659 188.171 312.938 199.4C304.634 199.911 301.878 210.902 310.76 210.902C290.274 224.888 306.404 256.025 350.71 226.484C353.098 224.432 355.244 222.114 357.107 219.576C353.33 214.438 357.55 211.205 359.115 214.88C360 216.99 360.986 213.757 360.986 211.137C362.232 211.211 363.451 211.535 364.568 212.09C369.671 209.133 373.074 197.325 368.371 191.404Z" fill="#6153BD"/>
<path d="M485.226 171.973C477.23 164.35 484.886 156.728 481.79 148.765C490.943 152.406 497.137 161.764 493.019 170.578L485.226 171.973Z" stroke="#120071" stroke-width="0.769171" stroke-linecap="round" stroke-linejoin="round"/>
<path d="M358.128 238.981C359.387 239.089 360.637 239.282 361.871 239.56L380.417 191.233L467.225 212.297L439.866 290.496L414.582 282.873C412.502 285.582 410.38 288.259 408.219 290.904L440.036 300.466C444.902 301.93 449.598 300.364 451.742 294.477L478.659 217.061C480.496 211.753 479.952 206.682 471.887 204.709L381.574 183.242C375.653 182.153 372.216 184.637 370.515 189.061L369.139 192.6M461.951 255.004C461.784 255.61 461.435 256.149 460.95 256.549C460.465 256.949 459.869 257.19 459.243 257.239C458.722 257.281 458.199 257.188 457.724 256.971C457.249 256.753 456.838 256.418 456.529 255.996C456.221 255.574 456.025 255.081 455.962 254.562C455.898 254.043 455.968 253.517 456.166 253.034C456.332 252.428 456.682 251.888 457.166 251.488C457.651 251.088 458.247 250.847 458.874 250.798C459.395 250.757 459.917 250.849 460.392 251.066C460.867 251.284 461.279 251.62 461.587 252.041C461.896 252.463 462.091 252.957 462.155 253.475C462.218 253.994 462.148 254.52 461.951 255.004Z" stroke="#120071" stroke-width="0.769171" stroke-linejoin="round"/>
<path d="M194.687 398.946L217.282 366.687" stroke="#120071" stroke-width="0.769171" stroke-linecap="round" stroke-linejoin="round"/>
<path d="M189.855 371.519L222.114 394.114" stroke="#120071" stroke-width="0.769171" stroke-linecap="round" stroke-linejoin="round"/>
<path d="M409.648 324.933L431.427 321.088" stroke="#120071" stroke-width="0.769171" stroke-linecap="round" stroke-linejoin="round"/>
<path d="M418.632 312.138L422.443 333.917" stroke="#120071" stroke-width="0.769171" stroke-linecap="round" stroke-linejoin="round"/>
<path d="M482.538 418.411C508.83 418.411 530.145 397.096 530.145 370.804C530.145 344.512 508.83 323.198 482.538 323.198C456.246 323.198 434.932 344.512 434.932 370.804C434.932 397.096 456.246 418.411 482.538 418.411Z" stroke="#120071" stroke-width="0.769171" stroke-linecap="round" stroke-linejoin="round"/>
<path d="M239.707 270.283C250.457 270.283 259.172 261.568 259.172 250.818C259.172 240.069 250.457 231.354 239.707 231.354C228.957 231.354 220.242 240.069 220.242 250.818C220.242 261.568 228.957 270.283 239.707 270.283Z" stroke="#120071" stroke-width="0.769171" stroke-linecap="round" stroke-linejoin="round"/>
<path d="M323.929 408.37C339.684 411.537 355.744 412.929 371.808 412.522" stroke="#120071" stroke-width="0.769171" stroke-linecap="round" stroke-linejoin="round"/>
<path d="M406.143 409.053C484.811 391.6 520.35 298.935 477.06 221.747M280.27 393.566C243.555 375.484 215.359 343.771 201.697 305.193C172.908 226.246 222.016 191.274 268.224 205.011C292.28 212.163 303.954 205.896 305.451 184.594C306.847 164.755 320.935 149.876 362.994 152.437C399.441 154.657 441.163 176.06 464.125 202.814" stroke="#120071" stroke-width="0.769171" stroke-linecap="round" stroke-linejoin="round"/>
<path d="M249.576 163.806L204.622 171.735C202.885 172.07 201.349 173.075 200.346 174.533C199.344 175.991 198.955 177.784 199.263 179.526C199.571 181.268 200.552 182.819 201.994 183.845C203.436 184.87 205.223 185.287 206.97 185.006L251.924 177.077L264.719 167.957L249.576 163.806Z" stroke="#120071" stroke-width="0.769171" stroke-linecap="round" stroke-linejoin="round"/>
<path d="M206.733 171.36L209.081 184.632" stroke="#120071" stroke-width="0.769171" stroke-linecap="round" stroke-linejoin="round"/>
<path d="M214.355 170.033L216.669 183.305" stroke="#120071" stroke-width="0.769171" stroke-linecap="round" stroke-linejoin="round"/>
<path d="M249.576 163.806L251.924 177.077" stroke="#120071" stroke-width="0.769171" stroke-linecap="round" stroke-linejoin="round"/>
<path d="M485.227 171.973C485.363 177.994 485.92 183.998 486.894 189.941C489.985 207.507 495.707 226.011 498.668 225.501C501.629 224.99 500.694 205.621 497.579 188.069C496.476 182.149 494.952 176.315 493.019 170.612L485.227 171.973Z" stroke="#120071" stroke-width="0.769171" stroke-linecap="round" stroke-linejoin="round"/>
<path d="M486.519 187.762L497.205 185.891" stroke="#120071" stroke-width="0.769171" stroke-linecap="round" stroke-linejoin="round"/>
<path d="M268.087 319.863C264.038 319.659 261.255 318.093 261.461 316.596C261.672 314.997 265.51 313.435 275.379 313.731C286.54 314.074 290.672 316.385 290.59 318.256C290.532 319.584 288.14 320.707 284.873 320.809" stroke="#120071" stroke-width="0.769171" stroke-linecap="round" stroke-linejoin="round"/>
<path d="M389.094 267.969C391.919 264.191 400.937 254.289 403.557 251.294C409.92 249.559 424.417 256.093 423.294 270.725C416.982 279.97 410.154 288.852 402.842 297.329C394.347 307.211 386.888 308.042 378.069 299.37C372.39 293.786 357.89 273.58 354.827 268.608C355.673 275.129 356.059 281.702 355.984 288.277" stroke="#120071" stroke-width="0.769171" stroke-linecap="round" stroke-linejoin="round"/>
<path d="M392.566 273.073C370.957 241.29 367.792 238.772 353.024 238.772C329.986 238.772 303.168 246.967 280.309 261.265C266.219 270.075 265.125 274.475 263.431 288.046C262.234 297.518 261.576 307.05 261.461 316.596" stroke="#120071" stroke-width="0.769171" stroke-linecap="round" stroke-linejoin="round"/>
<path d="M360.408 276.782C347.375 309.28 343.951 327.081 326.719 399.108C323.463 412.762 319.881 419.52 303.92 424.131C287.242 428.949 253.965 435.667 249.133 436.96" stroke="#120071" stroke-width="0.769171" stroke-linecap="round" stroke-linejoin="round"/>
<path d="M239.537 409.768C239 405.648 240.49 402.516 242.294 402.043C244.64 401.427 248.355 404.868 250.801 417.56C253.391 430.993 251.338 436.466 249.134 436.991C247.737 437.322 246.139 435.8 245.356 433.35" stroke="#120071" stroke-width="0.769171" stroke-linecap="round" stroke-linejoin="round"/>
<path d="M242.294 402.043C254.204 399.389 297.659 389.685 300.619 389.01" stroke="#120071" stroke-width="0.769171" stroke-linecap="round" stroke-linejoin="round"/>
<path d="M355.44 289.747C332.028 284.983 305.732 291.418 297.315 313.67C289.934 333.204 292.21 357.839 294.091 390.439" stroke="#120071" stroke-width="0.769171" stroke-linecap="round" stroke-linejoin="round"/>
<path d="M311.168 260.04C314.205 270.926 315.964 282.129 316.409 293.422" stroke="#120071" stroke-width="0.769171" stroke-linecap="round" stroke-linejoin="round"/>
<path d="M290.547 318.263C290.615 309.688 291.397 289.543 291.874 284.983C299.414 282.125 307.105 279.682 314.912 277.667" stroke="#120071" stroke-width="0.769171" stroke-linecap="round" stroke-linejoin="round"/>
<path d="M230.553 412.014C236.781 412.028 239.945 465.269 232.867 465.235C225.789 465.201 222.965 411.996 230.553 412.014Z" stroke="#120071" stroke-width="0.769171" stroke-linecap="round" stroke-linejoin="round"/>
<path d="M230.554 412.014C234.494 411.129 237.836 410.043 248.045 407.794" stroke="#120071" stroke-width="0.769171" stroke-linecap="round" stroke-linejoin="round"/>
<path d="M252.026 427.565C247.126 428.997 244.738 431.346 242.838 444.103C241.531 452.879 239.095 463.635 232.868 465.237" stroke="#120071" stroke-width="0.769171" stroke-linecap="round" stroke-linejoin="round"/>
<path d="M378.205 424.434C374.19 423.651 371.656 421.948 371.774 420.112C371.924 417.763 376.37 415.97 388.959 416.982C402.98 418.11 406.109 420.997 406.109 422.937C406.109 424.672 403.244 425.285 400.736 425.285" stroke="#120071" stroke-width="0.769171" stroke-linecap="round" stroke-linejoin="round"/>
<path d="M376.81 435.255C378.443 430.049 428.391 445.056 426.458 450.909C424.959 455.435 374.6 442.299 376.81 435.255Z" stroke="#120071" stroke-width="0.769171" stroke-linecap="round" stroke-linejoin="round"/>
<path d="M376.81 435.255C377.389 431.342 377.797 426.884 379.294 416.808" stroke="#120071" stroke-width="0.769171" stroke-linecap="round" stroke-linejoin="round"/>
<path d="M398.725 418.377C398.691 423.413 400.158 426.48 410.669 433.959C418.908 439.815 427.173 444.678 426.458 450.905" stroke="#120071" stroke-width="0.769171" stroke-linecap="round" stroke-linejoin="round"/>
<path d="M350.199 305.367C364.344 314.38 377.977 324.172 391.034 334.7C404.741 346.108 406.143 350.353 406.143 370.124V422.937" stroke="#120071" stroke-width="0.769171" stroke-linecap="round" stroke-linejoin="round"/>
<path d="M371.774 420.112C372.012 406.467 372.114 366.92 371.774 361.855C361.497 358.316 345.572 352.973 338.187 350.93" stroke="#120071" stroke-width="0.769171" stroke-linecap="round" stroke-linejoin="round"/>
<path d="M344.789 288.386C331.075 305.367 322.432 344.636 314.911 400.342C293.915 406.943 262.132 414.327 250.63 416.709" stroke="#120071" stroke-width="0.769171" stroke-linecap="round" stroke-linejoin="round"/>
<path d="M284.599 314.691C284.871 320.033 285.416 333.854 284.701 336.435C283.986 339.016 276.333 351.614 271.77 356.989C268.879 360.392 265.322 361.167 268.98 354.096C271.132 349.872 272.987 345.504 274.532 341.022C278.869 328.673 269.696 326.019 266.024 330.439C260.415 337.18 256.213 338.875 258.436 333.57C259.792 330.335 260.512 328.397 261.465 325.947C262.417 323.497 268.543 320.298 268.951 318.869C269.279 317.235 269.393 315.565 269.291 313.901" stroke="#120071" stroke-width="0.769171" stroke-linecap="round" stroke-linejoin="round"/>
<path d="M272.307 346.814C269.49 349.688 266.31 352.182 262.847 354.232C258.626 356.706 257.164 354.402 262.131 349.775C265.603 346.549 268.734 342.974 271.474 339.107" stroke="#120071" stroke-width="0.769171" stroke-linecap="round" stroke-linejoin="round"/>
<path d="M268.564 336.639C270.322 338.383 272.335 339.849 274.535 340.986" stroke="#120071" stroke-width="0.769171" stroke-linecap="round" stroke-linejoin="round"/>
<path d="M267.441 344.228C264.213 345.833 260.794 347.022 257.266 347.767C252.674 348.729 253.289 346.04 258.151 343.99C262.058 342.141 265.764 339.894 269.211 337.286" stroke="#120071" stroke-width="0.769171" stroke-linecap="round" stroke-linejoin="round"/>
<path d="M262.915 341.506C260.443 341.914 257.932 342.05 255.428 341.914C252.094 341.506 251.139 339.557 256.211 338.783C260.201 338.208 264.08 337.026 267.713 335.278C268.106 332.811 269.022 330.456 270.399 328.37" stroke="#120071" stroke-width="0.769171" stroke-linecap="round" stroke-linejoin="round"/>
<path d="M346.865 353.518C346.695 346.133 346.252 325.069 346.865 316.596" stroke="#120071" stroke-width="0.769171" stroke-linecap="round" stroke-linejoin="round"/>
<path d="M299.02 282.431C304.066 277.981 308.828 273.219 313.278 268.173" stroke="#120071" stroke-width="0.769171" stroke-linecap="round" stroke-linejoin="round"/>
<path d="M408.661 230.264L405.975 227.338L403.661 220.226L410.569 223.118L442.923 258.27C443.442 258.881 443.705 259.669 443.657 260.469C443.608 261.27 443.253 262.02 442.665 262.565C442.076 263.109 441.3 263.405 440.499 263.391C439.697 263.377 438.932 263.054 438.363 262.49L412.671 234.55" stroke="#120071" stroke-width="0.769171" stroke-linecap="round" stroke-linejoin="round"/>
<path d="M438.028 252.962C436.943 253.162 435.935 253.664 435.122 254.41C434.309 255.156 433.723 256.117 433.431 257.182" stroke="#120071" stroke-width="0.769171" stroke-linecap="round" stroke-linejoin="round"/>
<path d="M439.866 254.969C438.781 255.17 437.775 255.672 436.962 256.418C436.149 257.165 435.564 258.125 435.272 259.189" stroke="#120071" stroke-width="0.769171" stroke-linecap="round" stroke-linejoin="round"/>
<path d="M405.905 251.022C406.245 244.659 405.292 241.222 405.292 237.989C405.292 236.492 407.37 233.463 409.58 228.019C411.045 224.412 413.932 226.726 412.745 233.361C411.448 240.609 416.011 244.659 420.197 242.787" stroke="#120071" stroke-width="0.769171" stroke-linecap="round" stroke-linejoin="round"/>
<path d="M417.815 230.979C420.299 231.353 422.409 231.728 423.367 231.966C423.503 233.653 423.503 235.349 423.367 237.036" stroke="#120071" stroke-width="0.769171" stroke-linecap="round" stroke-linejoin="round"/>
<path d="M412.745 225.51C417.373 225.714 427.99 226.326 429.113 227.449C430.814 229.151 431.222 237.454 431.427 240.38" stroke="#120071" stroke-width="0.769171" stroke-linecap="round" stroke-linejoin="round"/>
<path d="M430.78 232.919C436.735 243.706 436.803 245.169 434.217 248.81" stroke="#120071" stroke-width="0.769171" stroke-linecap="round" stroke-linejoin="round"/>
<path d="M430.44 253.987C427.207 258.138 423.455 261.949 422.647 264.025" stroke="#120071" stroke-width="0.769171" stroke-linecap="round" stroke-linejoin="round"/>
<path d="M350.754 226.457C353.137 224.414 355.28 222.106 357.141 219.58C353.398 214.441 357.569 211.216 359.149 214.884C360.059 216.997 361.02 213.761 361.02 211.14C362.266 211.219 363.483 211.542 364.602 212.093C371.783 207.908 375.628 186.231 358.103 188.035C360.34 169.489 333.865 166.869 332.878 182.346C319.369 171.865 297.658 188.199 312.937 199.395C304.634 199.905 301.878 210.897 310.76 210.897C290.233 224.893 306.415 256.08 350.754 226.457Z" stroke="#120071" stroke-width="0.769171" stroke-linecap="round" stroke-linejoin="round"/>
<path d="M330.905 241.018C341.488 234.961 353.909 224.541 357.141 219.579" stroke="#120071" stroke-width="0.769171" stroke-linecap="round" stroke-linejoin="round"/>
<path d="M357.788 238.908C357.335 236.58 356.994 234.252 356.76 231.904C366.875 233.515 365.41 228.09 364.559 212.093" stroke="#120071" stroke-width="0.769171" stroke-linecap="round" stroke-linejoin="round"/>
<path d="M356.76 231.903C356.605 230.362 356.494 228.817 356.427 227.27C359.966 229.856 363.233 231.49 364.322 229.856" stroke="#120071" stroke-width="0.769171" stroke-linecap="round" stroke-linejoin="round"/>
</svg>
