<svg xmlns="http://www.w3.org/2000/svg" enable-background="new 0 0 3000 3000" viewBox="0 0 3000 3000" id="waiting-until-the-new-year"><g><path fill="#DFE4EF" d="M2426.531 1493.613c-21.923-5.075-43.594 7.826-62.24 20.421-60.306 40.718-103.398 141.882-175.201 130.107-33.163-5.44 7.752-79.208-22.628-72.57-87.76 19.168-123.745 111.262-340.623 195.127-210.146 81.25-391.999 64.021-381.045 124.345 16.927 93.217 280.657 73.216 326.442 96.216 45.778 23.005 90.003 53.384 140.969 58.646 62.391 6.443 121.486-25.91 175.856-57.191 82.567-47.502 165.911-95.565 235.901-160.193 69.983-64.633 126.477-148.188 141.145-242.318C2470.787 1549.74 2462.486 1501.936 2426.531 1493.613zM502.706 2540.742c0 0 88.11-16.772 281.472-16.066 193.362.706 1745.182-13.84 1785.159 27.051 39.977 40.892-13.976 129.15-113.521 142.763-99.544 13.615-2027.672 14.367-2037.682-36.536C408.125 2607.053 502.706 2540.742 502.706 2540.742z"></path></g><g><circle cx="1508.201" cy="1025.506" r="727.901" fill="#B9C1E1" transform="rotate(-45.001 1508.196 1025.528)"></circle><ellipse cx="1508.2" cy="1025.506" fill="#DFE4EF" rx="641.646" ry="641.647" transform="rotate(-45.001 1508.196 1025.528)"></ellipse><path fill="#B9C1E1" d="M1713.898 480.872c257.353 100.459 401.362 332.331 247.716 347.394C1807.968 843.33 1602.207 437.273 1713.898 480.872zM2095.849 1283.273c-99.141 226.023-324.902 383.866-587.626 383.866-306.466 0-562.753-214.892-626.411-502.226 139.927 189.846 380.995 320.816 650.501 329.425C1761.119 1501.644 1962.879 1419.288 2095.849 1283.273z" opacity=".25"></path><g><path fill="#929ED3" d="M1516.203,625.734c18.677,0.012,33.823,15.135,33.788,33.848l-0.296,388.785
			c-0.012,18.677-15.166,33.8-33.849,33.794c-13.028-0.003-24.336-7.386-29.969-18.19c-2.448-4.678-3.827-10.01-3.819-15.658
			l0.297-388.787C1482.366,640.854,1497.521,625.728,1516.203,625.734z"></path><path fill="#B9C1E1" d="M1630.56,1006.473c-17.317-30.484-45.002-51.315-76.079-60.805l15.614-425.895
			c0.68-18.667-13.903-34.354-32.559-35.037c-18.697-0.682-34.36,13.9-35.031,32.562l-15.611,425.785
			c-12.284,2.787-24.386,7.359-35.905,13.895c-63.265,35.933-85.422,116.319-49.495,179.584
			c35.918,63.248,116.316,85.405,179.579,49.478C1644.318,1150.116,1666.479,1069.724,1630.56,1006.473z"></path><path fill="#929ED3" d="M1558.856,1068.617c0.608-22.043-16.763-40.394-38.806-41.001c-22.046-0.61-40.398,16.763-41.005,38.806
			c-0.61,22.037,16.763,40.403,38.812,41.004C1539.895,1108.033,1558.246,1090.655,1558.856,1068.617z"></path></g><g><g><rect width="53.074" height="83.561" x="1481.664" y="341.056" fill="#B9C1E1"></rect><rect width="53.074" height="83.561" x="1481.664" y="1625.359" fill="#B9C1E1"></rect></g><g><rect width="53.074" height="83.561" x="839.512" y="983.207" fill="#B9C1E1" transform="rotate(-90 866.05 1024.988)"></rect><rect width="53.074" height="83.561" x="2123.816" y="983.207" fill="#B9C1E1" transform="rotate(-90 2150.353 1024.987)"></rect></g></g><path fill="#929ED3" d="M1294.541 949.828c0 0 1.93 8.471 2.472 17.704.542 9.234-49.359 71.208-49.359 71.208l9.615 10.426c0 0-150.701 258.148-200.333 286.599-49.632 28.451-136.813 0-136.813 0l.826 116.88c0 0-80.076-133.044-91.36-192.412-11.285-59.368 8.965-173.121 8.965-173.121l155.311 119.954L1294.541 949.828zM1631.605 920.193c0 0-1.5 8.573 0 13.073s66.094 51.58 66.094 51.58 203.005 253.096 252.206 263.958c49.2 10.862 121.347 21.777 121.347 21.777s-12.736 118.237-31.417 146.436c-18.68 28.199 40.829 51.149 40.829 51.149s99.706-231.574 76.798-334.487l-133.607 22.115L1631.605 920.193z" opacity=".5"></path></g><g><g><g><path fill="#28264A" d="M2503.678,889.321c-0.379-73.06-60.142-63.154-108.643-73.057c-4.938-1.646-39.12-83.034-88.416-49.159
				c-51.399-23.073-76.277,36.404-71.84,51.187c-10.276,26.859-1.448,97.173,6.629,109.386
				c71.476,203.902,280.794,243.73,315.012,102.626C2572.815,955.755,2440.382,961.362,2503.678,889.321z"></path><path fill="#6EA45C" d="M2422.975,997.15l-9.347,11.369c2.589-3.982,5.482-7.769,8.941-11.413
				C2422.569,997.106,2422.734,997.123,2422.975,997.15z"></path><path fill="#689B57" d="M2057.177,1477.519c0,0,22.561,67.954,220.2,39.047c83.889,47.071,300.04,6.621,279.043-39.458
				c0,0-102.232-116.571-117.455-222.199c-15.227-105.628,61.698-206.031-37.281-166.364
				c-98.978,39.666-246.662,18.234-234.141,91.14C2212.128,1345.685,2057.177,1477.519,2057.177,1477.519z"></path><g><g><g><g><path fill="#28264A" d="M2288.873,2558.18l0.884,12.669c6.657,6.024-147.226,78.844-155.071,33.909L2288.873,2558.18z"></path><path fill="#E4C012" d="M2147.852,2585.75c62.88-38.538,97.235-90.474,132.742-66.711c6.812,8.061,3.738,22.792,8.999,41.963
								c3.088,11.256-79.236,49.579-125.405,52.667C2153.146,2614.406,2113.724,2610.541,2147.852,2585.75z"></path><path fill="#FAB19E" d="M2283.19,2445.621c-0.957,1.409-7.401,83.13-7.401,83.13s-0.767,9.581-17.33,15.133
								c-20.25,6.791-23.475-2.465-23.475-2.465l-17.189-84.175L2283.19,2445.621z"></path><path fill="#EAA98C" d="M2217.778,2457.27l17.23,84.128c0,0,3.184,9.236,23.438,2.485
								c16.606-5.589,17.307-15.133,17.307-15.133s6.44-81.724,7.451-83.121L2217.778,2457.27z M2270.863,2528.439
								c0,5.278-10.167,6.989-20.334,6.443c-10.243-0.62-3.181-17.461-6.131-28.793c0,0,18.938-1.785,24.757-5.974
								C2274.975,2495.845,2270.863,2523.241,2270.863,2528.439z"></path><path fill="#3A3A60" d="M2237.274,2549.135c12.555-53.46-20.853-67.103-31.807-4.829c0,0-50.225,31.452-53.751,38.642
								C2148.193,2590.137,2179.461,2598.506,2237.274,2549.135z"></path></g><path fill="#E06020" d="M2404.711,1420.822l-276.594,13.71c0,0-46.41,526.948,81.011,1053.852c0,0,32.697,28.777,86.8-3.897
							c0,0-6.718-546.077,19.034-664.017C2340.719,1702.535,2388.302,1565.043,2404.711,1420.822z"></path><path fill="#D3581E" d="M2404.704,1420.852c-16.379,144.161-64.019,281.673-89.707,399.647
							c-10.308,47.221-15.465,163.2-17.876,285.246c-11.472-61.935-29.765-159.124-33.589-171.096
							c-5.569-17.792-67.341-58.031-78.562-79.564c-11.225-21.453,45.808,7.481,58.778,0c13.053-7.484-10.143-8.399-30.679-23.528
							c-20.617-15.214,32.674,1.081,35.501-13.885c2.826-14.965-24.276-233.785-39.241-245.01
							c-10.476-7.813-58.614-29.181-86.714-41.401c2.411-61.441,5.486-96.69,5.486-96.69L2404.704,1420.852z"></path></g></g><g><g><g><path fill="#28264A" d="M2490.64,2562.74l1.557,12.599c6.962,5.667-142.866,86.502-153.073,42.044L2490.64,2562.74z"></path><path fill="#E4C012" d="M2351.27,2597.706c60.764-41.8,92.33-95.474,129.043-73.617c7.226,7.689,4.935,22.568,11.198,41.435
								c3.677,11.071-76.51,53.684-122.455,59.202C2358.072,2626.043,2318.5,2624.261,2351.27,2597.706z"></path><path fill="#FAB19E" d="M2479.03,2450.637c-0.881,1.457-3.003,83.402-3.003,83.402s-0.265,9.611-16.507,16.031
								c-19.865,7.846-23.572-1.226-23.572-1.226l-21.606-83.154L2479.03,2450.637z"></path><path fill="#EAA98C" d="M2477.148,2495.845c-8.382,5.044-21.265,11.252-35.159,11.641c1.165,4.346-2.016,21.884,4.736,31.432
								c5.046,7.217,20.256-0.234,29.335-6.597c0,1.085,0,1.708,0,1.708s-0.309,9.625-16.53,16.064
								c-19.868,7.839-23.595-1.24-23.595-1.24l-21.576-83.197l64.649-15.06C2478.544,2451.373,2477.768,2474.192,2477.148,2495.845
								z"></path><path fill="#3A3A60" d="M2438.644,2556.428c9.714-54.049-24.366-65.911-32.021-3.145c0,0-48.497,34.054-51.638,41.418
								C2351.846,2602.069,2383.51,2608.776,2438.644,2556.428z"></path></g><path fill="#E06020" d="M2501.846,1417.017l-226.318,20.913c0,0-20.626,528.409,129.139,1049.403
							c0,0,33.893,27.356,86.556-7.589c-9.882-88.02-31.538-655.455-4.022-852.668
							C2494.579,1556.601,2521.677,1527.587,2501.846,1417.017z"></path><path fill="#D3581E" d="M2491.25,2479.7c-8.894,5.904-17.21,10.063-25.026,12.806c9.561-96.606-7.648-436.812-13.134-478.381
							c-6.236-47.389-61.109-97.272-74.825-109.743c-13.717-12.468,32.423-4.987,47.388-22.611
							c14.966-17.628-18.706-17.293-33.92-21.037c-15.13-3.741,37.66-8.73,43.896-29.181c6.236-20.535,14.966-262.632,11.058-264.38
							c-3.908-1.828-90.87-6.982-108.162,0c-12.803,5.074-42.982,100.099-57.784,148.984
							c-9.477-168.689-5.237-278.264-5.237-278.264l226.304-20.866c19.869,110.574-7.233,139.591-14.63,210.009
							C2459.657,1824.323,2481.357,2391.742,2491.25,2479.7z"></path><path fill="#C6501C" d="M2246.705,1445.773c0,0,32.014,53.42,32.034,56.002c0.021,2.579,9.575,357.245,9.129,358.963
							c-0.445,1.715-27.47-353.611-27.47-353.611S2224.01,1463.508,2246.705,1445.773z"></path></g></g></g><path fill="#DFE4EF" d="M2143.233,1439.554c0,0,153.15,105.078,331.443-14.868c0,0-12.832-123.235-7.289-155.93
				c5.542-32.695,54.209-77.183,29.184-122.586c-25.031-45.403-61.678-114.331-69.547-142.986
				c-7.874-28.656-175.433-32.761-183.812-9.645c-8.382,23.12-99.92,96.09-84.148,136.745
				c15.773,40.654,38.919,48.822,33.139,100.005C2186.427,1281.468,2097.831,1382.595,2143.233,1439.554z"></path><path fill="#B9C1E1" d="M2467.354,1268.73c5.581-32.691,54.203-77.139,29.217-122.583
				c-25.073-45.366-61.711-114.334-69.588-142.949c-7.869-28.696-175.413-32.798-183.785-9.638
				c-8.365,23.076-99.948,96.08-84.128,136.701c15.725,40.694,38.912,48.822,33.136,100.005
				c-5.776,51.18-94.369,152.33-48.966,209.289c0,0,153.18,105.078,331.429-14.832
				C2474.669,1424.722,2461.851,1301.431,2467.354,1268.73z M2231.901,1135.933c-12.465-27.322,10.038-96.937,29.643-85.511
				c64.829,33.159,101.324-2.729,89.115,61.058c-3.855,20.146-0.837,11.851-34.784,14.517
				C2282.004,1128.673,2244.364,1163.256,2231.901,1135.933z M2341.017,1408.32c-22.99-2.592,9.019,11.218,27.634,26.321
				c18.706,15.026-21.506,10.489-68.383,15.401c-46.789,4.92-61.067-7.8-55.258-53.464c5.887-45.574,18.804-124.994,6.61-192.682
				c30.34,60.897,124.323,131.604,134.922,153.123c1.571,33.501-37.56,14.273-61.617,1.44
				c-24.128-12.929,23.961,30.431,52.078,50.305C2405.126,1428.553,2363.929,1410.909,2341.017,1408.32z"></path><g><g><g><path fill="#FAB19E" d="M2301.919,977.723c-1.735-2.719,1.933-49.394,1.463-50.724l65.703-51.511l-0.153,101.334
							c4.597,1.551,15.497,3.969,29.576,10.419c-30.709,64.665-109.361,85.963-130.81-3.433
							C2264.362,979.029,2294.442,980.339,2301.919,977.723z"></path><path fill="#E06020" d="M2271.812,981.639c0,0,13.243,52.074,47.067,57.102c33.823,5.028,75.351-52.846,75.351-52.846
							s10.76,1.263,10.591,2.81c-0.169,1.547-22.007,64.994-85.942,61.259c-49.471-2.89-53.699-66.601-53.699-66.601
							L2271.812,981.639z"></path><path fill="#EBA090" d="M2301.548,975.215c-0.422-7.203,0.934-27.946,1.52-39.726c13.984-3.607,38.237-11.48,47.117-25.287
							C2350.188,910.198,2358.886,969.431,2301.548,975.215z"></path><path fill="#FAB19E" d="M2383.137,842.666c-22.025,158.87-173.102,139.233-114.555-40.711
							c2.638,22.263,88.203,18.12,88.203,18.12C2360.356,836.954,2369.93,845.63,2383.137,842.666z"></path><path fill="#FAB19E" d="M2362.037,905.142l11.975-43.976C2415.651,851.407,2391.369,913.025,2362.037,905.142z"></path><path fill="#28264A" d="M2384.969 875.461c-37.553 8.814 14.651 19.906-7.099 6.621C2377.87 882.082 2390.639 875.987 2384.969 875.461zM2300.429 833.752c.736 3.955-12.183 8.325-26.861 4.685C2258.894 834.797 2298.742 824.677 2300.429 833.752zM2330.207 841.565c2.093-3.439 14.634 1.915 23.147 14.41C2361.866 868.469 2325.418 849.451 2330.207 841.565zM2294.786 867.059c3.989-2.957 2.629-9.973-4.729-16.791-3.59-6.379-31.415 1.604-15.324 6.208C2293.016 848.671 2285.627 868.654 2294.786 867.059zM2340.012 878.8c3.989-2.96 2.633-9.976-4.735-16.794-3.583-6.383-31.399 1.614-15.318 6.205C2338.24 860.412 2330.849 880.391 2340.012 878.8zM2308.547 870.455c-33.672 45.651 20.632 28.512-7.866 22.377C2300.681 892.831 2310.606 870.649 2308.547 870.455z"></path><path fill="#FFF" d="M2320.981,916.203c-5.934-9.327-23.616,3.821-35.946-9.544c-14.681-0.723-7.555,16.362,11.168,20.645
							C2311.541,930.278,2323.338,924.658,2320.981,916.203z"></path></g></g></g><path fill="#FFD600" d="M2233.241,985.894c-7.866-12.08-208.262,84.146-235.232,89.537
				c-18.723,3.044-58.745,24.561-50.101,63.598c8.644,39.034,24.873,57.999,74.309,58.949
				c67.754-18.526,135.477-37.172,178.886-51.595C2233.766,1135.532,2233.241,985.894,2233.241,985.894z"></path><path fill="#C9A923" d="M2080.2,1087.035c-20.371-20.112-34.437,36.861-35.988,25.855c-1.124-7.863-13.939-43.278-33.542-48.095
				c-14.3,9.631-12.862,21.809-17.815,22.775c-30.512-8.732-52.892,22.136-45.103,57.332c7.768,35.114,22.41,52.219,66.94,53.084
				C2032.153,1198.265,2085.438,1164.495,2080.2,1087.035z"></path><path fill="#FFD600" d="M2276.355,978.996c-150.213,197.417,52.941,188.895-93.13,539.617c0,0-107.566-64.481-126.049-41.093
				c0,0,86.134-118.008,82.591-261.567c0,0,22.059-128.392,81.657-226.512C2228.678,983.804,2254.936,982.224,2276.355,978.996z"></path><path fill="#E4C012" d="M2231.317,1206.7c34.345,140.455-41.431,291.927-48.129,311.906c0,0-106.719-64.045-125.82-41.354
				c4.501-6.319,85.812-121.705,82.4-261.299c0,0-2.914-68.204,28.294-138.398c-7.196,36.046-15.963,90.427-11.573,127.287
				c6.858,58.781-34.667,202.186-33.696,218.338c0.961,16.235,34.379-31.251,35.498-3.975c1.118,27.276-15.508,65.224,13.85,50.764
				C2198.355,1457.129,2243.789,1359.96,2231.317,1206.7z"></path><path fill="#FFD600" d="M2407.078,985.895c-111.113,195.877,58.024,327.153-39.238,536.565c0,0,69.196-81.044,188.58-45.352
				c0,0-78.137-155.066-61.353-227.215c16.781-72.153,22.875-71.467,19.929-89.078c-2.951-17.608-69.644-158.789-69.644-158.789
				S2423.172,991.949,2407.078,985.895z"></path><path fill="#E4C012" d="M2556.441,1477.097c-119.411-35.668-188.587,45.332-188.587,45.332
				c7.512-16.198,13.456-31.94,18.03-47.291c7.773-5.814,18.81-14.373,28.086-18.814c15.877-7.709,31.945-13.653,35.21-18.814
				c3.332-5.16-6.597-0.392-24.952-2.223c-11.041-1.108-20.578-11.952-26.392-21.229c8.623-89.101-21.1-166.247-28.545-247.251
				c13.388,12.083,27.041,19.858,42.459,13.914c23.187-8.951,62.642-69.832,68.784-79.564c-0.258-6.858-0.586-15.156-0.979-25.149
				c16.918,37.168,33.903,76.101,35.407,84.788c3.004,17.641-3.137,16.922-19.922,89.104
				C2478.25,1322.019,2556.441,1477.097,2556.441,1477.097z"></path></g></g><g><path fill="#FFD600" d="M2445.352,1002.026c0,0,36.196,15.16,39.22,21.84c3.021,6.678,67.428,271.092,65.67,300.691
			c-1.758,29.6-24.131,59.522-60.82,58.517c-36.687-1.004-79.976-22.668-84.136-38.699c-4.159-16.034,20.937-157.188,20.937-157.188
			L2445.352,1002.026z"></path><path fill="#E4C012" d="M2550.242,1324.553c-1.115,81.781-123.037,63.516-144.932,19.808c3.04-78.06,28.264-186.641,30.9-254.173
			c13.484,54.716,43.5,135.144,100.576,154.657C2545.051,1284.13,2550.754,1315.485,2550.242,1324.553z"></path><path fill="#E06020" d="M2434.799,1090.436c0,0-4.514,137.187-6.282,135.914c-1.765-1.273-4.176-3.105-6.31-3.882
			C2417.413,1220.718,2430.151,1096.424,2434.799,1090.436z"></path><path fill="#C9A923" d="M2529.282,1368.869c-29.778,32.955-117.552-0.432-123.966-24.503
			c-3.888-15.043-13.98-130.137-0.616-138.687c26.898-17.196,110.249,29.654,97.604,60.576c6.6,6.677,46.294,28.384,20.18,31.321
			C2522.487,1297.576,2540.089,1341.422,2529.282,1368.869z"></path><path fill="#FAB19E" d="M2471.274,1251.962l-199.025-138.375l-41.247,40.38c10.844,3.928,222.849,324.97,289.888,184.277
			C2518.93,1297.191,2471.274,1251.962,2471.274,1251.962z"></path><g><g><path fill="#929ED3" d="M2145.718,1240.057c-15.79-7.476-23.833-24.686-20.895-40.274c2.934-15.588,15.607-37.062,38.864-32.045
					c23.256,5.017,26.887,18.489,24.107,30.736c-2.787,12.246-12.853,24.213-20.689,25.168c-7.837,0.959-13.953-0.282-17.896-7.075
					c-3.938-6.794-4.511-12.828,0.895-20.645c5.407-7.821,14.852-6.729,17.075-4.404c2.226,2.325,1.26,7.822-3.043,6.499
					c-4.298-1.322-10.214,1.976-9.903,8.931c0.314,6.956,10.276,12.873,18.39,4.631c8.116-8.246,8.749-27.968-1.741-32.042
					c-11.852-4.608-20.75-3.314-30.781,9.561c-10.027,12.873-4.877,39.914,13.157,43.346c18.033,3.436,27.411-3.65,41.834-33.391
					c12.41-25.579,34.684-116.255,45.121-160.313c0.704,0.271,1.42,0.5,2.125,0.733c1.57,0.519,3.155,0.979,4.724,1.49
					c1.552,0.508,3.014,1.14,4.493,1.821c0.148,0.069,0.297,0.134,0.448,0.199c-7.528,32.22-19.669,80.72-24.984,97.67
					c-7.425,23.666-23.492,72.207-36.342,88.297C2178.625,1244.035,2161.507,1247.531,2145.718,1240.057z"></path><path fill="#DFE4EF" d="M2145.742,1169.432L2145.742,1169.432c-0.479,0.221-0.949,0.457-1.41,0.702
					c-0.008,0.005-0.017,0.009-0.026,0.014c-0.467,0.251-0.922,0.512-1.371,0.786c3.066,2.338,5.7,5.23,7.719,8.518l0,0
					c0.88-0.479,1.762-0.878,2.65-1.201C2151.292,1174.907,2148.729,1171.918,2145.742,1169.432z M2142.771,1226.673
					c-0.938,3.542-1.461,7.181-1.578,10.837l0,0c0.461,0.305,0.93,0.598,1.408,0.882c0.003,0.001,0.009,0.007,0.012,0.008
					c0.479,0.284,0.971,0.56,1.465,0.828l0.003,0.001c-0.001-3.479,0.395-6.953,1.167-10.351l0,0
					c-0.437-0.334-0.866-0.687-1.278-1.052c0,0,0,0-0.003-0.004C2143.555,1227.457,2143.155,1227.073,2142.771,1226.673
					L2142.771,1226.673z M2175.98,1183.827c0.104,0.163,0.211,0.328,0.31,0.496c1.963-2.743,3.639-5.685,4.998-8.77l0,0
					c-0.734-0.634-1.535-1.246-2.404-1.832l0,0c-1.206,2.864-2.696,5.6-4.455,8.161c0.31,0.316,0.602,0.65,0.878,1.002
					c0.053,0.071,0.107,0.139,0.165,0.211c0.115,0.151,0.223,0.31,0.332,0.471C2175.865,1183.65,2175.921,1183.74,2175.98,1183.827z
					 M2181.23,1212.819c0.567-0.799,1.112-1.626,1.63-2.477c-2.348-1.092-4.698-2.182-7.045-3.275
					c-0.459,0.891-0.975,1.734-1.534,2.517C2176.597,1210.663,2178.914,1211.739,2181.23,1212.819z M2176.597,1227.297
					c4.028,1.538,8.158,2.764,12.36,3.675c0.271-0.306,0.542-0.614,0.811-0.928c0.303-0.36,0.608-0.72,0.907-1.093
					c0.132-0.164,0.263-0.341,0.397-0.512c-4.126-0.819-8.177-1.965-12.122-3.399l0,0c-0.393,0.408-0.782,0.802-1.176,1.178
					c0,0,0,0,0,0.003C2177.383,1226.595,2176.991,1226.956,2176.597,1227.297L2176.597,1227.297z M2209.438,1157.777
					c-0.305,1.019-0.602,2.029-0.9,3.029c4.207-0.412,8.397-1.022,12.549-1.824c0.362-1.076,0.712-2.139,1.058-3.188
					C2217.942,1156.662,2213.701,1157.33,2209.438,1157.777z M2195.09,1199.054c-0.087,0.186-0.175,0.358-0.264,0.54
					c4.084-0.429,8.141-1.12,12.139-2.065c0.001-0.004,0.001-0.004,0.001-0.004c0.457-1.112,0.912-2.231,1.364-3.363
					c-3.962,1.032-7.985,1.807-12.047,2.311c-0.18,0.41-0.358,0.802-0.535,1.189c-0.044,0.095-0.089,0.189-0.133,0.284
					C2195.439,1198.328,2195.264,1198.7,2195.09,1199.054z M2148.228,1214.745c0.299,0.601,0.627,1.208,0.98,1.823
					c0.176,0.295,0.356,0.569,0.534,0.843c1.883-2.131,3.982-4.067,6.247-5.792c-0.608-0.804-1.08-1.692-1.381-2.63
					C2152.305,1210.709,2150.172,1212.635,2148.228,1214.745z M2164.656,1198.146c-1.171-2.87-2.575-5.646-4.185-8.294
					c-0.99,0.078-2.029,0.271-3.074,0.6c1.49,2.342,2.8,4.794,3.926,7.337c0.96-0.116,1.922-0.044,2.812,0.229
					C2164.316,1198.075,2164.488,1198.116,2164.656,1198.146z M2124.475,1210.426c3.364-2.108,6.901-3.908,10.573-5.391
					c0.012-0.543,0.034-1.083,0.071-1.622c-0.003-0.001-0.002-0.003-0.002-0.003c0.033-0.541,0.083-1.078,0.146-1.612
					c-3.825,1.452-7.519,3.242-11.027,5.338C2124.266,1208.235,2124.347,1209.332,2124.475,1210.426z"></path><g><path fill="#DFE4EF" d="M2129.161 1186.88c.006-.005.007-.009.009-.015.24-.482.485-.962.741-1.439 0 0 0 0 .001-.003 3.94.156 7.857.785 11.648 1.883-.005.002-.005.002-.005.002-.23.274-.464.552-.695.836-.247.302-.493.612-.742.932-.006.005-.012.014-.018.023-.178.229-.35.466-.519.706-3.637-.936-7.362-1.429-11.104-1.476C2128.697 1187.844 2128.926 1187.36 2129.161 1186.88zM2137.525 1218.426c-2.348 3.136-4.293 6.554-5.785 10.173l0 0c-.338-.454-.667-.913-.984-1.379-.008-.017-.022-.032-.031-.047-.321-.473-.633-.952-.93-1.437l0 0c1.737-3.799 3.948-7.372 6.58-10.613l0 0C2136.699 1216.251 2137.086 1217.354 2137.525 1218.426zM2186.343 1215.224c.562-.897 1.131-1.84 1.703-2.814 4.136.133 8.279.082 12.41-.148-.242.502-.483.999-.725 1.491-.009.019-.017.033-.027.052-.242.493-.482.978-.724 1.456-.001.003-.001.003-.002.006-4.216.177-8.436.173-12.651-.016C2186.333 1215.242 2186.336 1215.233 2186.343 1215.224zM2214.149 1141.332c4.485-.469 8.943-1.207 13.34-2.211 0 0-.001.003-.002.007-.065.218-.133.432-.196.643-.093.293-.182.588-.271.867 0 .004-.003.01-.004.016-.171.548-.348 1.111-.53 1.683-4.35.928-8.757 1.602-13.186 2.023.001-.003.001-.003.001-.003C2213.582 1143.353 2213.868 1142.347 2214.149 1141.332zM2165.982 1177.945c-.982-.249-1.945-.444-2.894-.581l0 0c.989-3.084 1.294-6.35.904-9.553.006-.003.008-.001.011-.001 1.049.233 2.049.484 3.018.751C2167.262 1171.718 2166.911 1174.915 2165.982 1177.945L2165.982 1177.945zM2156.119 1232.904c.573.076 1.14.139 1.697.188.021.004.044.008.065.011.567.049 1.127.088 1.681.111l0 0c2.001 3.691 4.422 7.147 7.208 10.286l0 0c-1.184.173-2.375.275-3.573.319C2160.443 1240.462 2158.068 1236.796 2156.119 1232.904zM2203.722 1176.252c3.962-.439 7.899-1.099 11.78-2.016.118-.028.236-.06.357-.086-.388 1.08-.774 2.163-1.169 3.251l0 .003c-3.953.869-7.957 1.511-11.982 1.909.001-.003.003-.006.003-.006C2203.044 1178.307 2203.383 1177.292 2203.722 1176.252zM2150.103 1195.924c.053-.078.109-.15.166-.227 2.511.931 4.883 2.213 7.046 3.797-.739.6-1.392 1.349-1.905 2.237-2.069-1.494-4.344-2.68-6.754-3.507C2149.08 1197.476 2149.558 1196.707 2150.103 1195.924zM2165.351 1215.494c.271 2.796 1.08 5.548 2.365 8.05-.205.04-.411.077-.611.1-.835.101-1.64.173-2.433.22-1.215-2.643-1.965-5.481-2.214-8.392C2163.386 1215.615 2164.359 1215.63 2165.351 1215.494zM2188.115 1196.85c-3.136.622-6.345.822-9.532.593.1-.978.145-1.959.144-2.93 3.275.245 6.576-.004 9.786-.745C2188.435 1194.797 2188.299 1195.826 2188.115 1196.85z"></path></g><path fill="#DFE4EF" d="M2253.475,1044.754c-4.772-1.406-9.547-2.814-14.323-4.222c-0.458-0.134-0.604-0.574-0.335-0.956
					c0.075-0.11,0.154-0.223,0.232-0.332c-0.017-0.106-0.012-0.214,0.047-0.333c3.68-7.381,6.893-14.972,9.613-22.734
					c0.128-0.358,0.458-0.405,0.728-0.273c0.097-0.034,0.201-0.049,0.327-0.016c2.947,0.782,5.886,1.559,8.83,2.338
					c0.317,0.086,0.535,0.357,0.474,0.688c-1.63,8.46-3.258,16.92-4.885,25.38
					C2254.124,1044.579,2253.783,1044.844,2253.475,1044.754z"></path><path fill="#E06020" d="M2254.703,1041.841c0,0-15.429-6.277-16.558-4.411c-1.13,1.869-26.838,97.567-24.942,99.299
					c1.896,1.731,15.325,3.858,16.507,3.199c1.182-0.657,24.909-93.237,25.737-95.089
					C2256.273,1042.98,2254.703,1041.841,2254.703,1041.841z"></path></g><g><g><path fill="#FAB19E" d="M2173.062,1102.648c3.483-9.68,8.235-7.893,8.235-7.893s-3.677-8.642,1.663-13.264
						c5.342-4.622,11.968-0.169,11.968-0.169s-4.504-8.325,1.551-13.593c6.055-5.268,14.406-0.86,14.406-0.86
						s-2.292-9.619,10.049-11.054c8.588-0.999,23.978,16.288,27.683,20.992c0.212-5.394,1.191-14.546,4.634-19.538
						c4.076-5.912,9.805-9.104,11.259-6.239c2.524,4.976,3.99,42.136,10.365,60.982c8.125,8.272,18.844,20.085,18.844,20.085
						l-47.36,42.901c0,0-6.068-7.236-19.219-21.216c-8.865-6.785-38.565-27.921-38.565-27.921S2170.227,1110.527,2173.062,1102.648z
						"></path></g><g><path fill="#DB8F82" d="M2257.758 1086.899c.432-.391-3.65-5.599-9.116-11.633-5.466-6.034-10.247-10.609-10.678-10.219-.431.391 3.65 5.6 9.116 11.633C2252.546 1082.715 2257.327 1087.29 2257.758 1086.899zM2215.2 1071.632c.431-.391-.403-2.014-1.862-3.625-1.46-1.611-2.992-2.601-3.424-2.21-.431.391.402 2.014 1.862 3.625C2213.235 1071.034 2214.767 1072.023 2215.2 1071.632zM2200.105 1087.039c.431-.391-.595-2.227-2.293-4.102-1.698-1.874-3.424-3.077-3.856-2.686-.432.391.595 2.227 2.294 4.102C2197.948 1086.227 2199.674 1087.43 2200.105 1087.039zM2187.188 1099.823c.385-.436-.743-2.059-2.519-3.623-1.776-1.564-3.528-2.478-3.912-2.042-.385.437.743 2.059 2.519 3.623C2185.052 1099.347 2186.804 1100.26 2187.188 1099.823z"></path></g></g></g></g><g><g><path fill="#FAB19E" d="M2047.878,1162.417c9.357-32.876-36.228-72.706-36.228-72.706l-262.933-165.224l-31.92,49.771
				c0,0,197.705,187.956,268.259,216.616C2017.013,1203.85,2043.188,1178.899,2047.878,1162.417z"></path><path fill="#DB8F82" d="M2005.511,1133.086c11.851-17.94,5.393-40.934,2.077-41.003s-15.472,14.142-11.307,13.765
				c4.16-0.377,9.269-8.413,9.269-8.413S2001.547,1139.096,2005.511,1133.086z"></path><g><path fill="#FAB19E" d="M1707.186,850.33c-4.662,0.697-6.521,4.522-5.341,10.003c2.522,11.66,6.207,23.004,9.408,34.898
					c-20.332-11.752-42.47-23.975-62.81-35.726c-2.023,2.284-1.719,5.548-0.63,7.809c1.093,2.261,2.913,4.078,4.722,5.818
					c7.097,6.817,14.625,13.185,22.528,19.054c-15.186-6.338-25.936-11.25-40.452-16.614c-1.193,2.059-1.324,5.585-0.012,7.571
					c1.315,1.984,4.908,4.548,6.849,5.927c8.823,6.262,16.03,11.385,24.853,17.646c-10.832-3.685-22.542-6.384-33.374-10.069
					c-1.261,1.343-1.221,4.62-0.386,6.26c0.839,1.641,2.244,2.946,3.762,3.986c7.728,5.283,18.532,11.15,24.875,15.122
					c-7.507-1.75-15.47-2.782-22.975-4.53c-2.571,6.787,6.684,8.105,11.54,11.389c20.162,13.636,41.264,28.036,61.423,41.674
					c0,0,15.25,10.254,27.391,17.017c0.382-0.682,25.251-37.063,28.025-40.779c-5.661-3.609-15.298-18.162-15.298-18.162
					C1746.574,897.136,1733.076,888.408,1707.186,850.33z"></path><path fill="#DB8F82" d="M1681.045 895.207c-.277.519-2.889-.349-5.835-1.937-2.947-1.585-5.111-3.286-4.833-3.801.278-.511 2.888.353 5.835 1.937C1679.155 892.989 1681.321 894.693 1681.045 895.207zM1673.765 910.871c-.28.515-2.891-.352-5.838-1.936-2.944-1.583-5.11-3.284-4.831-3.799.279-.516 2.891.351 5.833 1.935C1671.876 908.656 1674.038 910.359 1673.765 910.871zM1668.185 926.08c-.279.516-2.891-.351-5.835-1.937-2.948-1.581-5.111-3.286-4.832-3.802.275-.513 2.887.358 5.836 1.938C1666.3 923.863 1668.462 925.567 1668.185 926.08zM1677.138 930.737c-.512-.286 2.576-6.791 6.895-14.526 4.317-7.739 8.235-13.781 8.747-13.495.51.283-2.58 6.786-6.897 14.524C1681.562 924.98 1677.646 931.025 1677.138 930.737zM1720.78 927.717c-.068.127-.601-.053-1.524-.495-.895-.477-2.297-1.049-3.686-2.274-2.968-2.122-6.492-6.341-7.831-11.959-1.428-5.587-.484-10.806.484-14.283 1.057-3.508 2.274-5.453 2.529-5.326.271.122-.425 2.216-1.075 5.675-.566 3.43-1.193 8.345.116 13.426 1.226 5.104 4.176 9.02 6.753 11.331 1.18 1.298 2.411 2.031 3.151 2.708C1720.456 927.17 1720.85 927.589 1720.78 927.717zM1751.282 928.626c.148.029.123.699-.038 1.896-.164 1.198-.42 2.939-1.061 5.005-1.138 4.172-3.455 9.782-7.118 15.301-7.29 11.189-16.556 17.203-16.834 16.671-.373-.442 8.026-7.012 15.063-17.835C1748.55 938.957 1750.588 928.444 1751.282 928.626z"></path></g></g></g><g><g><path fill="#FFD600" d="M2422.801,653.852c-5.364,45.462-18.126,109.707-24.87,169.609l-0.028,0.243c0,0,0,0-0.082-0.009
				c-0.151-0.101-1.33-0.565-3.29-1.37c-4.424-7.786-22.769-22.279-46.616-36.12c-24.386-14.147-46.595-23.063-55.126-22.523
				c-0.387-0.21-0.682-0.491-1.061-0.78c0.012-0.082,0.102-0.151,0.274-0.214c0.18-0.142,0.461-0.432,0.823-0.716
				C2303.498,753.039,2389.642,680.6,2422.801,653.852z"></path><path fill="#E06020" d="M2400.95,671.684c0.681,2.391,2.214,4.979,5.629,6.96
				c4.615,2.735,9.388,2.336,12.664,1.528c1.369-9.323,2.596-18.158,3.531-26.319
				C2417.055,658.448,2409.514,664.653,2400.95,671.684z" opacity=".2"></path><g><path fill="#C6501C" d="M2419.465,668.753c0,0-4.917,2.725-7.475-0.293c-2.56-3.021,0.569-7.504,0.569-7.504
					s-4.911-1.552-4.71-6.631c0.195-5.076,6.718-3.268,6.718-3.268s-0.404-4.109,2.335-4.696c2.736-0.586,4.863,2.527,5.615,4.354
					c0,0,4.842-1.369,6.673,1.07c1.833,2.443,1.071,6.873-1.058,8.629c0,0,3.708,6.92-0.999,9.732
					C2422.429,672.956,2419.465,668.753,2419.465,668.753z"></path><path fill="#E06020" d="M2424.834,666.055c0,0-3.43,3.236-6.114,1.278c-2.686-1.956-1.061-6.273-1.061-6.273
					s-4.29-0.275-5.158-4.484c-0.867-4.205,4.776-4.045,4.776-4.045s-1.156-3.287,0.941-4.327c2.098-1.034,4.452,1.083,5.432,2.433
					c0,0,3.643-2.109,5.621-0.477c1.977,1.63,2.26,5.419,0.89,7.291c0,0,4.406,4.924,1.164,8.187
					C2428.083,668.902,2424.834,666.055,2424.834,666.055z"></path></g><path fill="#E06020" d="M2388.464,682.039c0.306,0.649,0.782,1.189,1.406,1.653c2.164,1.623,5.24,1.153,6.868-0.991
				c1.567-2.131,1.185-5.075-0.919-6.714C2393.407,677.942,2390.947,679.971,2388.464,682.039z"></path><path fill="#E06020" d="M2396.988,700.172c3.103-4.152,9.016-5.013,13.204-1.92
				c4.19,3.088,5.07,8.961,1.965,13.113c-3.104,4.154-9.016,5.013-13.206,1.923C2394.763,710.197,2393.884,704.326,2396.988,700.172
				z" opacity=".5"></path><path fill="#E06020" d="M2391.732 724.215c2.182 1.611 2.642 4.672 1.023 6.837-1.617 2.166-4.701 2.615-6.885 1.004-2.183-1.613-2.643-4.674-1.025-6.84C2386.466 723.054 2389.547 722.605 2391.732 724.215zM2402.231 753.965c1.474 1.272 3.224 1.975 5.013 2.172.947-6.204 1.933-12.388 2.893-18.429-3.246-.681-6.704.352-9.02 3.041C2397.798 744.69 2398.278 750.625 2402.231 753.965z"></path><path fill="#E06020" d="M2386.92 763.351c2.184 1.613 2.643 4.675 1.024 6.837-1.618 2.166-4.701 2.614-6.885 1.004-2.184-1.613-2.644-4.672-1.023-6.837C2381.653 762.189 2384.736 761.74 2386.92 763.351zM2393.579 800.109c2.068 1.515 4.564 2.123 6.96 1.731.787-5.931 1.638-11.877 2.465-17.787-3.932-1.757-8.703-.648-11.383 2.929C2388.533 791.161 2389.427 797.019 2393.579 800.109z" opacity=".5"></path><path fill="#E06020" d="M2352.21,712.227c0.303,0.386,0.65,0.693,1.061,0.984c2.257,1.465,5.342,0.793,6.775-1.467
				c1.202-1.867,0.984-4.194-0.367-5.764C2357.174,708.089,2354.692,710.158,2352.21,712.227z"></path><path fill="#E06020" d="M2355.889,724.348c3.103-4.152,9.016-5.011,13.204-1.92
				c4.189,3.09,5.07,8.961,1.964,13.113c-3.103,4.152-9.016,5.013-13.205,1.923C2353.664,734.373,2352.786,728.503,2355.889,724.348
				z" opacity=".5"></path><path fill="#E06020" d="M2352.538 748.183c2.184 1.611 2.643 4.672 1.023 6.838-1.618 2.163-4.7 2.614-6.885 1.001-2.185-1.611-2.644-4.672-1.023-6.837C2347.271 747.018 2350.354 746.57 2352.538 748.183zM2313.205 744.851l-.024.04c-.836 3.495.474 7.292 3.554 9.601 4.154 3.091 10.093 2.24 13.18-1.939 3.126-4.155 2.234-10.015-1.96-13.127-1.856-1.339-4.006-1.904-6.114-1.818l-.023.039C2318.794 740.186 2315.879 742.632 2313.205 744.851zM2345.875 773.038c3.104-4.155 9.016-5.014 13.206-1.923 4.189 3.09 5.067 8.961 1.964 13.115-3.103 4.152-9.016 5.011-13.206 1.92S2342.772 777.189 2345.875 773.038z"></path><path fill="#E06020" d="M2397.931,823.461c-0.01,0.082-0.018,0.161-0.11,0.234c-0.026,0.24-0.136,0.471-0.237,0.622
				c-0.392,0.527-1.095,0.932-2.097,1.058c0.095-0.805-0.279-1.827-0.956-3.05c-4.424-7.786-22.769-22.279-46.616-36.12
				c-24.386-14.147-46.595-23.063-55.126-22.523c-0.415,0.031-0.831,0.064-1.172,0.187c-0.126-0.341-0.181-1.421,1.209-1.896
				c5.822-2.655,30.029,6.739,57.271,22.451C2378.104,800.633,2398.625,817.587,2397.931,823.461z"></path></g></g></g><g><g><g><path fill="#FAB19E" d="M1040.73,2412.919c1.658,4.611,35.719,68.876,42.905,88.343c10.775,6.541,42.739-8.093,43.214-19.545
				c0.474-11.454-20.154-90.415-20.154-90.415L1040.73,2412.919z"></path><path fill="#E06020" d="M1097.448,2557.617c7.253,0.526,140.8-50.612,154.04-55.378c13.238-4.769-8.991-50.563-50.228-36.81
				l-62.357-21.575c-5.581-8.798,4.974-20.74,0.831-24.102c-7.469-5.992-27.74,0.272-37.44,13.454
				c-4.495,6.145-6.659,13.349-4.443,21.964c-12.945,4.976-36.842,14.52-35.091,22.033
				C1065.177,2487.599,1090.159,2557.099,1097.448,2557.617z"></path><path fill="#C6501C" d="M1251.488,2502.247c-13.277,4.745-146.798,55.875-154.042,55.4c-3.361-0.298-10.6-15.328-17.579-32.506
				c22.969,0.397,66.497-1.301,96.458-17.367c0,0,35.61-32.163,67.074-34.375C1255.263,2484.161,1258.89,2499.552,1251.488,2502.247
				z"></path><path fill="#28264A" d="M1169.067,2501.262c-0.615-5.027,12.026-32.399,34.179-36.165c0,0-14.257-10.358-30.198,7.903
				C1161.282,2486.479,1169.067,2501.262,1169.067,2501.262z"></path><g><path fill="#28264A" d="M1142.07 2478.882c4.632-5.364 33.243-17.748 25.315-19.363-7.928-1.611-28.096 10.892-27.887 16.587C1139.71 2481.803 1142.07 2478.882 1142.07 2478.882zM1129.424 2472.167c4.63-5.364 33.239-17.75 25.313-19.36-7.925-1.611-28.098 10.888-27.886 16.587C1127.063 2475.089 1129.424 2472.167 1129.424 2472.167zM1116.776 2465.452c4.632-5.364 33.238-17.75 25.314-19.359-7.926-1.612-28.099 10.887-27.889 16.586C1114.415 2468.375 1116.776 2465.452 1116.776 2465.452z"></path></g><path fill="#28264A" d="M1089.548,2546.809c-0.034-0.101,60.353-18.609,93.485-30.723c3.699-1.355,3.284-11.939,36.346-24.353
				c22.767-8.929,33.178-4.445,34.276-3.926c2.052,0.964,10.106,14.239,4.011,17.727c-6.094,3.488-155.033,58.624-158.476,56.978
				C1092.377,2559.255,1089.548,2546.809,1089.548,2546.809z"></path></g><g><g><path fill="#3A3A60" d="M879.081,1421.468c0,0,250.411,985.704,242.967,991.195s-78.283,22.506-78.283,22.506
					s-365.206-752.815-366.514-797.283c-1.308-44.469,17.309-237.266,17.309-237.266L879.081,1421.468z"></path><path fill="#313055" d="M1071.405,2428.213c-15.136,3.939-27.681,6.945-27.681,6.945S678.588,1682.39,677.24,1637.914
					c-1.244-44.475,17.313-237.307,17.313-237.307l184.538,20.838c0,0,12.337,48.726,31.621,124.511l-52.666,12.959
					c0,0-64.069,203.717-62.204,227.044c1.97,23.327,29.962,122.853,47.483,136.019c17.417,13.271,47.793-7.776,45.408,5.08
					c-2.281,12.855-37.84,29.132-20.631,37.322c17.21,8.19,73.712-15.136,72.26,0c-1.452,15.24-49.244,29.132-43.439,57.123
					C902.003,2046.178,1017.598,2348.696,1071.405,2428.213z"></path><g><path fill="#FAB19E" d="M496.149,2452.783c-0.517,4.873-0.613,77.87-2.627,98.523c6.849,10.583,43.046,15.337,48.462,5.235
						c5.418-10.102,22.96-94.474,22.96-94.474L496.149,2452.783z"></path><path fill="#E06020" d="M480.477,2607.737c6.299,3.634,148.784,15.791,162.779,17.27c13.993,1.475,13.937-49.429-29.172-55.017
						l-46.727-46.588c-1.19-10.351,13.513-16.501,11.249-21.332c-4.111-8.648-25.086-11.842-39.561-4.202
						c-6.723,3.572-11.81,9.114-13.569,17.833c-13.82-1.161-39.487-2.983-41.185,4.543
						C481.937,2530.654,474.142,2604.094,480.477,2607.737z"></path><path fill="#C6501C" d="M643.252,2625.013c-14.018-1.513-156.476-13.667-162.789-17.25c-2.895-1.733-2.863-18.416-1.66-36.918
						c20.501,10.365,60.42,27.801,94.388,26.396c0,0,46.066-13.434,75.35-1.716C654.53,2610.38,651.088,2625.813,643.252,2625.013z"></path><path fill="#28264A" d="M569.494,2588.216c1.637-4.793,24.941-23.923,46.522-17.66c0,0-8.32-15.535-30.624-6.044
						C568.929,2571.519,569.494,2588.216,569.494,2588.216z"></path><g><path fill="#28264A" d="M554.946 2556.31c6.507-2.81 37.655-1.491 31.222-6.398-6.433-4.905-30.034-2.438-32.328 2.779C551.549 2557.911 554.946 2556.31 554.946 2556.31zM546.489 2544.756c6.504-2.812 37.651-1.495 31.219-6.398-6.431-4.903-30.034-2.442-32.327 2.78C543.091 2546.357 546.489 2544.756 546.489 2544.756zM538.03 2533.201c6.506-2.81 37.651-1.495 31.22-6.395-6.432-4.905-30.035-2.443-32.329 2.777C534.632 2534.803 538.03 2533.201 538.03 2533.201z"></path></g><path fill="#28264A" d="M478.076,2594.566c0.013-0.105,62.431,9.547,97.531,13.077c3.919,0.392,8.157-9.315,43.324-6.083
						c24.383,1.882,31.8,10.454,32.562,11.401c1.428,1.761,2.892,17.219-4.113,17.703c-7.006,0.485-165.087-14.781-167.468-17.762
						C475.199,2607.002,478.076,2594.566,478.076,2594.566z"></path></g><path fill="#3A3A60" d="M829.758,1420.196l-50.608,138.331c0,0-178.854,913.885-214.348,925.094
					c-35.495,11.208-76.171-8.757-76.171-8.757s34.801-819.982,35.335-830.992c0.534-11.011-1.038-217.944,8.566-230.703
					C542.135,1400.411,829.758,1420.196,829.758,1420.196z"></path><path fill="#313055" d="M829.743,1420.2l-50.592,138.3c0,0-178.836,913.909-214.396,925.105
					c-9.538,3.007-19.595,3.732-29.029,3.317c31.413-99.008,111.138-454.118,115.803-472.365
					c5.39-21.045-49.66-46.653-62.411-55.983c-12.856-9.331,50.074-2.385,70.083-13.996c20.008-11.716-17.728-23.326-37.529-26.748
					c-19.906-3.316,45.512-22.289,48.933-36.285c3.421-13.995,52.562-300.858,51.422-331.235c-1.141-30.273-131.872-4.665-146.075,0
					c-7.465,2.488-31.102,40.744-51.837,76.614c0.208-51.837,0.311-202.887,8.397-213.774
					C542.154,1400.399,829.743,1420.2,829.743,1420.2z"></path></g><g><g><path fill="#FAB19E" d="M1223.554,891.939c4.713-0.114,7.201,3.336,6.979,8.938c-0.484,11.92-2.167,23.728-3.28,35.995
						c18.014-15.066,37.726-30.907,55.747-45.974c2.385,1.903,2.646,5.171,1.961,7.584c-0.689,2.415-2.17,4.517-3.654,6.542
						c-5.821,7.935-12.145,15.499-18.924,22.638c13.874-8.851,23.621-15.534,37.001-23.309c1.528,1.824,2.263,5.275,1.311,7.457
						c-0.954,2.18-4.055,5.323-5.731,7.015c-7.617,7.682-13.839,13.966-21.456,21.649c10.038-5.49,21.112-10.158,31.151-15.647
						c1.472,1.106,1.996,4.341,1.456,6.101c-0.545,1.761-1.705,3.288-3.023,4.573c-6.706,6.53-16.344,14.165-21.91,19.167
						c7.095-3.012,14.763-5.396,21.856-8.405c3.698,6.245-5.194,9.132-9.414,13.202c-17.523,16.893-59.396,69.536-70.197,78.281
						c-0.493-0.606-38.465-37.401-41.836-40.585c4.958-4.527,11.954-20.518,11.954-20.518
						C1192.782,944.81,1204.583,933.894,1223.554,891.939z"></path><path fill="#DB8F82" d="M1257.008 931.664c.362.463 2.786-.839 5.416-2.91 2.631-2.067 4.472-4.115 4.108-4.574-.362-.456-2.785.843-5.416 2.91C1258.49 929.155 1256.648 931.205 1257.008 931.664zM1266.869 945.846c.364.46 2.788-.843 5.42-2.909 2.629-2.065 4.47-4.112 4.106-4.572-.363-.46-2.787.842-5.415 2.907C1268.349 943.34 1266.511 945.389 1266.869 945.846zM1274.975 959.873c.364.46 2.788-.842 5.416-2.911 2.633-2.063 4.472-4.115 4.108-4.574-.36-.458-2.783.847-5.416 2.91C1276.452 957.365 1274.615 959.414 1274.975 959.873zM1266.955 965.997c.456-.369-3.703-6.248-9.286-13.128-5.581-6.882-10.478-12.163-10.933-11.794-.454.366 3.706 6.242 9.287 13.125C1261.607 961.084 1266.503 966.367 1266.955 965.997zM1223.442 970.51c.088.113.583-.155 1.416-.749.8-.624 2.083-1.428 3.242-2.873 2.56-2.601 5.308-7.361 5.663-13.125.449-5.749-1.378-10.729-2.927-13.988-1.644-3.275-3.177-4.982-3.406-4.814-.246.167.799 2.109 2.033 5.407 1.147 3.282 2.607 8.017 2.189 13.247-.331 5.238-2.566 9.602-4.708 12.321-.94 1.481-2.028 2.415-2.64 3.208C1223.667 969.916 1223.351 970.397 1223.442 970.51zM1193.547 976.641c-.141.054 0 .71.364 1.861.366 1.153.918 2.823 1.905 4.749 1.837 3.915 5.082 9.043 9.638 13.852 9.101 9.773 19.262 14.107 19.444 13.536.292-.499-9.11-5.53-17.899-14.985C1198.012 986.349 1194.201 976.342 1193.547 976.641z"></path></g><path fill="#E06020" d="M810.465,959.237c0,0,29.284,4.326,40.849,14.28c4.095,3.525,156.748,169.399,162.171,168.064
					c5.424-1.334,166.152-154.723,166.152-154.723l55.816,47.508c0,0-160.913,240.184-224.639,264.299
					c-63.725,24.115-185.604-151.9-185.604-151.9S720.845,997.753,810.465,959.237z"></path><path fill="#C6501C" d="M1010.022,1148.261c-2.059,0.843-17.722,27.801-14.596,29.539c3.128,1.737,14.596-20.504,14.596-20.504
					s-2.085,30.581,5.213,25.021C1022.533,1176.756,1017.668,1145.132,1010.022,1148.261z"></path><path fill="#D3581E" d="M825.2,1146.786c0,0,121.891,176.011,185.587,151.854c63.757-24.094,224.692-264.293,224.692-264.293
					l-21.313-18.101c-33.918,50.165-136.163,196.768-185.957,219.009c-60.235,26.874-252.741-217.218-252.741-217.218l11.924-42.195
					C742.786,1029.095,825.2,1146.786,825.2,1146.786z"></path></g><path fill="#28264A" d="M818.464,1452.646c0,0-15.012,138.766-42.152,151.75l16.715-96.095c0,0-20.803,5.061-19.679-5.061
				c1.124-10.121,4.498-44.419,4.498-44.419L818.464,1452.646z"></path><path fill="#E06020" d="M923.629,1470.527c0,0-223.807,39.057-317.095,39.057c-51.318,0-100.474-47.085-100.474-47.085
				S638.93,962.171,662.496,956.233c23.566-5.938,109.727-13.679,150.968,7.618C854.706,985.148,923.629,1470.527,923.629,1470.527z
				"></path><path fill="#D3581E" d="M923.671,1470.482c0,0-223.83,39.085-317.136,39.085c-51.318,0-100.459-47.068-100.459-47.068
				s62.307-234.716,109.167-384.522c13.478,45.512,28.821,86.255,43.957,105.021c29.236,36.078,118.809-84.598,177.488-172.098
				c7.983,25.608,16.484,60.026,24.675,98.281l-44.58,60.857c0,0-155.406,162.247-165.876,183.19
				c-10.575,21.045,55.879,13.995,48.933,26.851c-7.049,12.856-69.875,32.761-48.933,44.373c20.942,11.611,88.122-18.557,80.761,0
				c-7.36,18.557-33.797,20.319-12.959,28.199c20.735,7.879,167.743,2.074,166.602-9.642c-1.14-11.611-41.987-22.082-18.661-22.082
				s37.114,16.277,30.79-5.91c-3.628-12.648-10.471-116.321-15.758-203.095C905.216,1340.373,923.671,1470.482,923.671,1470.482z"></path><path fill="#C6501C" d="M621.497,1224.959c3.499,0-52.285,277.585-59.282,260.09
				C555.217,1467.554,610.8,1224.959,621.497,1224.959z"></path><path fill="#D3581E" d="M814.977,1070.692c-44.825,21.909-130.554-35.349-135.895,0c-5.34,35.35-23.015,184.604,17.245,139.435
				c40.259-45.169,56.935-79.643,70.986-50.185c14.05,29.458,80.054,9.926,68.851-29.351
				C824.961,1091.313,833.128,1061.821,814.977,1070.692z"></path><path fill="#E06020" d="M662.496,956.233c0,0-59.849,23.556-73.305,40.198c-8.945,11.064-22.166,214.678-4.711,262.184
				c25.832,31.433,98.219,20.243,115.342-14.288C716.946,1209.797,679.58,969.368,662.496,956.233z"></path><path fill="#C6501C" d="M683.642 1029.48c0 0 10.721 169.461 16.181 174.5C705.284 1209.019 704.766 1065.322 683.642 1029.48zM578.06 1064.297c0 0 .483 185.154 6.421 194.318C584.481 1258.615 556.772 1202.416 578.06 1064.297zM859.054 1098.739c-1.225-.817 23.35 175.706 30.224 171.778C896.151 1266.589 869.364 1105.612 859.054 1098.739z"></path><g><g><path fill="#E06020" d="M649.635,639.028c35.452-30.145,135.973,56.867,135.973,56.867s-80.974,79.128-123.59,86.491
						C662.017,782.386,614.181,669.175,649.635,639.028z"></path><path fill="#C6501C" d="M662.039,782.404c42.604-7.394,123.543-86.515,123.543-86.515s-2.389-2.048-6.541-5.461
						c-44.138,13.425-94.762,57.961-109.267,44.993c-13.195-11.831-17.519-71.327-18.77-97.435c-0.455,0.284-0.91,0.682-1.365,1.023
						C614.202,669.156,662.039,782.404,662.039,782.404z"></path><path fill="#FFD600" d="M662.017,782.386c4.245,6.065,35.352-8.38,69.481-32.264c34.128-23.884,58.354-48.162,54.11-54.227
						s-35.352,8.38-69.48,32.264C681.998,752.043,657.773,776.321,662.017,782.386z"></path><polygon fill="#FFD600" points="665.173 808.184 662.017 782.386 785.607 695.895 808.679 707.755"></polygon><path fill="#C6501C" d="M651.566,822.42c6.018,8.599,50.124-11.881,98.513-45.746c48.389-33.864,82.738-68.287,76.72-76.886
						c-6.018-8.599-50.124,11.882-98.513,45.745C679.897,779.397,645.548,813.821,651.566,822.42z"></path><path fill="#28264A" d="M665.241,815.414c4.263,6.092,41.362-12.516,82.864-41.56c41.502-29.045,71.69-57.527,67.428-63.617
						c-4.263-6.09-41.362,12.516-82.863,41.561C691.168,780.841,660.979,809.324,665.241,815.414z"></path></g><path fill="#FAB19E" d="M714.719,850.106l-2.035,80.4c0,0,4.69,29.064,44.244,34.981c12.557,1.878,18.659-7.178,21.137-20.413
					c-3.329-25.947-8.087-51.977-8.087-51.977L714.719,850.106z"></path><path fill="#DB8F82" d="M726.035,888.022c7.613,33.513,37.691,38.514,49.484,39.185c-2.76-18.808-5.523-34.109-5.523-34.109
					l-43.589-33.886C723.944,866.377,723.197,875.707,726.035,888.022z"></path><path fill="#FAB19E" d="M804.286,744.934c0,0,28.956,69.86,22.156,107.042c-2.753,15.045-16.421,56.11-48.245,53.316
					c-31.825-2.795-89.164-81.468-73.308-113.682C720.735,759.396,804.286,744.934,804.286,744.934z"></path><path fill="#28264A" d="M700.33,870.637c-1.816,19.84,15.477,17.561,15.695,15.72c12.916,8.26,59.014,23.942,83.687,18.092
					c29.983-7.108,27.889-54.184,27.889-54.184s-20.811-8.01-36.609-0.488c-15.799,7.521-24.098,35.941-39.362,18.687
					c-15.264-17.254-30.968-62.859-21.37-81.349c29.217-1.156,60.55-6.767,77.266-23.511c36.777-36.838,38.695-61.74-0.632-50.309
					c-39.326,11.431-125.892,83.441-125.892,83.441C676.003,827.093,679.89,874.51,700.33,870.637z"></path><path fill="#C6501C" d="M776.405,932.885c0,0,17.006,13.863,19.525,19.74c2.519,5.877-12.981,25.127-26.513,30.319
					c-36.106,13.856-77.671-25.19-75.571-34.847c2.098-9.656,19.083-23.956,19.083-23.956s9.648,36.406,44.312,31.514
					C778.064,952.715,776.405,932.885,776.405,932.885z"></path><g><path fill="#FAB19E" d="M718.32,837.877c0,0,2.489-30.311-5.741-39.618c-6.062-6.854-16.432-6.923-20.905-4.519
						c-15.927,8.558-6.338,40.328,12.771,47.717C708.592,843.06,715.309,842.13,718.32,837.877z"></path><path fill="#28264A" d="M692.767,807.818c42.582,11.137-17.284,22.282,7.906,7.757
						C700.673,815.574,686.286,808.253,692.767,807.818z"></path></g><path fill="#28264A" d="M779.081 784.028c-1.503-3.969-15.535-.841-26.768 10.458C741.081 805.79 782.52 793.126 779.081 784.028zM806.292 775.507c1.35-3.341 11.884-1.488 19.867 7.229C834.14 791.456 803.203 783.166 806.292 775.507zM768.322 803.774c3.695-4.424 24.072 5.779 10.964 7.015-13.027-8.676-10.189 7.854-17.052 5.301C759.575 813.222 761.638 807.988 768.322 803.774zM812.864 794.802c3.695-4.424 24.072 5.779 10.964 7.014-13.027-8.675-10.188 7.854-17.052 5.301C804.118 804.25 806.181 799.017 812.864 794.802zM796.496 812.746c5.781 11.93 8.493 17.669 7.235 21.23-3.176 8.994-21.441-1.44-4.242-1.919C799.489 832.057 794.797 812.591 796.496 812.746z"></path><path fill="#DFE4EF" d="M811.184,861.624c-11.396,9.657-18.735,0.966-19.894,5.601c-1.159,4.636,5.215,12.362,15.259,10.044
					C817.897,874.65,820.643,853.608,811.184,861.624z"></path></g></g></g><g><g><g><path fill="#DB8F82" d="M838.723,898.911c0,0,28.151-41.799,36.065-41.772l5.892,8.242c0,0-10.463,26.188-10.991,28.6
					c-0.53,2.409,1.815,14.812-10.623,25.649C846.626,930.467,833.077,908.616,838.723,898.911z"></path><g><path fill="#FAB19E" d="M929.897,905.851c-0.991-3.549-13.338-1.364-13.338-1.364s2.664-6.796-3.809-9.533
						c-3.8-1.609-9.424,0.899-9.424,0.899s2.434-8.459-4.51-12.413c-6.941-3.948-12.888,2.787-12.888,2.787
						s1.025-12.831-11.298-11.808c-8.574,0.712-11.363,2.69-14.057,8.007c-7.511,3.941-21.008,13.479-23.935,19.119
						c-5.078,9.766-3.578,24.665,1.549,35.102c-6.303,9.665-15.022,24.762-15.022,24.762l48.363,28.825l15.318-21.031l34.497-37.572
						C921.342,931.631,930.466,914.027,929.897,905.851z"></path></g><g><path fill="#FFD600" d="M1023.002,837.119c-2.52-14.603-14.757-25.089-28.163-26.231c-13.406-1.145-33.836,4.33-35.023,24.476
						c-1.187,20.147,8.997,26.176,19.638,26.688c10.641,0.506,22.709-5,25.271-11.186c2.566-6.186,2.941-11.467-1.713-16.234
						c-4.657-4.763-9.458-6.603-17.075-3.962c-7.62,2.641-8.876,10.608-7.481,12.953c1.394,2.348,6.106,2.808,6.003-1.009
						c-0.103-3.813,3.936-7.898,9.549-6.063c5.614,1.839,8.184,11.324-0.395,16.082c-8.584,4.758-24.846,0.791-25.791-8.707
						c-1.071-10.733,2.009-17.711,14.811-22.982c12.8-5.268,33.728,5.089,32.433,20.607c-1.291,15.518-9.214,21.571-36.798,26.597
						c-23.725,4.327-102.891,1.917-141.269,0.43c0.06,0.637,0.086,1.274,0.116,1.903c0.067,1.401,0.083,2.801,0.143,4.2
						c0.063,1.383,0.247,2.722,0.467,4.085c0.023,0.136,0.042,0.274,0.062,0.411c28.042,1.173,70.438,2.277,85.498,1.785
						c21.029-0.688,64.351-2.784,80.42-9.627C1018.771,864.915,1025.519,851.721,1023.002,837.119z"></path><path fill="#C9A923" d="M970.767,829.27c0.467-0.653,0.993-1.283,1.584-1.893l0,0c-2.228-2.398-3.993-5.209-5.207-8.246
						c-0.326,0.304-0.643,0.618-0.954,0.942c-0.006,0.006-0.011,0.012-0.017,0.018c-0.305,0.321-0.604,0.651-0.894,0.993l0,0
						C966.631,824.089,968.492,826.864,970.767,829.27z M1012.733,831.668c0.24,0.405,0.463,0.819,0.668,1.239
						c0.003,0.003,0.003,0.003,0.003,0.003c0.206,0.421,0.396,0.852,0.569,1.284l0,0c2.953,0.141,5.881,0.607,8.724,1.399v-0.003
						c-0.107-0.465-0.221-0.93-0.345-1.386c0-0.003-0.003-0.009-0.003-0.012c-0.124-0.455-0.257-0.905-0.401-1.351l0,0
						C1018.934,832.107,1015.84,831.707,1012.733,831.668L1012.733,831.668z M969.995,848.865c-0.107-0.125-0.212-0.251-0.309-0.379
						c-0.046-0.063-0.089-0.123-0.135-0.183c-0.225-0.306-0.432-0.621-0.619-0.945c-2.493,0.855-5.068,1.45-7.682,1.785l0,0
						c0.282,0.843,0.599,1.637,0.951,2.381l0,0c2.83-0.409,5.616-1.11,8.303-2.09c-0.115-0.12-0.225-0.245-0.335-0.367
						C970.111,848.999,970.05,848.934,969.995,848.865z M991.605,853.534c-0.767,0.279-1.574,0.509-2.406,0.682
						c0.36,2.167,0.717,4.335,1.076,6.502c0.812-0.23,1.613-0.487,2.394-0.769C992.313,857.81,991.96,855.672,991.605,853.534z
						 M1005.554,859.453c-0.369,0.245-0.753,0.484-1.147,0.718c-0.003,0-0.003,0-0.003,0c-0.396,0.236-0.807,0.464-1.23,0.693l0,0
						c0.276,3.55,0.292,7.121,0.023,10.679c0.171-0.071,0.345-0.138,0.508-0.208c0.373-0.16,0.736-0.327,1.1-0.493
						c0.317-0.149,0.631-0.3,0.942-0.452C1005.957,866.749,1005.895,863.095,1005.554,859.453L1005.554,859.453z M936.766,880.421
						c0.936-0.044,1.883-0.088,2.846-0.14c1.598-3.211,3.05-6.496,4.342-9.84c-0.884,0.016-1.777,0.029-2.679,0.047
						C939.94,873.871,938.431,877.184,936.766,880.421z M977.244,868.323c-0.088,0.014-0.175,0.029-0.262,0.044
						c-0.356,0.057-0.717,0.114-1.093,0.167c-1.337,3.206-2.884,6.317-4.628,9.32c1.028-0.112,2.046-0.229,3.058-0.349
						c0,0,0,0,0.003,0c1.681-3.053,3.168-6.211,4.447-9.451c-0.169,0.032-0.329,0.064-0.501,0.093
						C977.94,868.208,977.596,868.266,977.244,868.323z M995.591,837.321c0.699,0.46,1.317,1.047,1.835,1.726
						c1.924-1.458,3.983-2.734,6.153-3.788c-0.183-0.208-0.367-0.418-0.567-0.629c-0.422-0.427-0.843-0.834-1.267-1.215
						C999.578,834.525,997.519,835.831,995.591,837.321z M984.459,842.613c-0.021-0.79,0.139-1.592,0.452-2.351
						c-1.822-1.498-3.528-3.127-5.104-4.876c-0.506,0.78-0.9,1.585-1.189,2.376c1.798,1.918,3.747,3.697,5.827,5.307
						C984.458,842.924,984.464,842.775,984.459,842.613z M1000.98,812.08c-2.51,2.39-4.813,5.002-6.869,7.798
						c0.451,0.069,0.901,0.15,1.351,0.246c0,0,0.003,0,0.003,0.003c0.448,0.092,0.895,0.197,1.341,0.31
						c2.046-2.664,4.322-5.145,6.809-7.415C1002.75,812.669,1001.872,812.354,1000.98,812.08z"></path><g><path fill="#C9A923" d="M983.307 811.499c-.005.003-.009.003-.014.003-.449.086-.896.178-1.345.278 0 0 0 0-.003.001-.768 3.255-1.144 6.599-1.11 9.947.003-.003.003-.003.003-.003.277-.126.557-.253.843-.378.303-.133.612-.264.93-.395.005-.003.014-.006.023-.01.228-.093.46-.179.695-.264.062-3.185.506-6.341 1.319-9.41C984.201 811.34 983.753 811.417 983.307 811.499zM1007.187 825.506c3.097-1.206 6.332-2.019 9.629-2.414l0 0c-.295-.38-.595-.754-.904-1.117-.012-.012-.022-.026-.031-.037-.314-.37-.634-.734-.963-1.087l0 0c-3.5.556-6.923 1.551-10.169 2.965l0 0C1005.596 824.337 1006.41 824.903 1007.187 825.506zM993.471 864.673c-.86.255-1.761.506-2.686.752-.832 3.41-1.815 6.784-2.942 10.108.465-.084.926-.168 1.383-.253.017-.003.031-.007.049-.01.457-.086.908-.172 1.354-.261.003 0 .003 0 .005 0 1.103-3.406 2.059-6.855 2.863-10.343C993.488 864.67 993.48 864.67 993.471 864.673zM926.764 870.599c-1.403 3.56-3.02 7.034-4.839 10.399 0 0 .003 0 .006 0 .193-.003.384-.01.571-.014.26-.009.521-.015.769-.024.003 0 .009 0 .014 0 .486-.014.987-.032 1.496-.05 1.747-3.345 3.3-6.792 4.651-10.317-.003 0-.003 0-.003 0C928.545 870.596 927.658 870.601 926.764 870.599zM967.635 839.56c.02-.859.079-1.691.183-2.497l0 0c-2.744.108-5.483-.386-8.013-1.432-.003.003-.003.006-.003.009-.049.91-.071 1.784-.073 2.637C962.255 839.19 964.948 839.629 967.635 839.56L967.635 839.56zM1014.792 843.993c-.068.486-.146.963-.233 1.429-.001.018-.003.038-.006.056-.089.474-.184.941-.291 1.398l0 0c2.562 2.475 4.835 5.238 6.767 8.23l0 0c.41-.929.765-1.878 1.073-2.848C1019.984 849.245 1017.529 846.471 1014.792 843.993zM957.672 870.017c-1.26 3.138-2.694 6.205-4.326 9.168-.049.09-.103.18-.151.272.97-.072 1.944-.141 2.922-.216h.003c1.608-3.033 3.044-6.159 4.283-9.358-.003 0-.005.001-.005.001C959.506 869.93 958.599 869.976 957.672 870.017zM985.937 830.669c-.076.027-.148.055-.223.084.189 2.264.697 4.494 1.501 6.622.658-.468 1.419-.832 2.261-1.049-.751-2.031-1.203-4.159-1.33-6.317C987.438 830.187 986.701 830.403 985.937 830.669zM998.464 847.579c2.224.857 4.289 2.144 6.041 3.762.079-.158.156-.319.221-.476.273-.66.514-1.301.732-1.938-1.883-1.594-4.032-2.852-6.355-3.717C999.01 846.001 998.801 846.8 998.464 847.579zM978.053 861.945c1.221-2.422 2.114-4.998 2.651-7.655-.822-.14-1.634-.327-2.427-.548-.544 2.732-1.498 5.373-2.833 7.828C976.303 861.74 977.174 861.862 978.053 861.945z"></path></g><path fill="#FFD600" d="M838.898,880.784c-0.064-4.22-0.129-8.442-0.195-12.665c-0.005-0.404-0.332-0.624-0.705-0.491
						c-0.108,0.036-0.218,0.075-0.324,0.114c-0.084-0.038-0.173-0.058-0.283-0.037c-6.869,1.329-13.802,2.229-20.765,2.688
						c-0.321,0.024-0.435,0.282-0.389,0.533c-0.049,0.071-0.086,0.152-0.087,0.263c-0.03,2.586-0.064,5.165-0.097,7.748
						c-0.002,0.278,0.171,0.519,0.456,0.544c7.284,0.591,14.568,1.184,21.851,1.778
						C838.608,881.274,838.902,881.056,838.898,880.784z"></path><path fill="#E06020" d="M836.238,881.125c0,0-1.622-14.036,0.16-14.535c1.785-0.499,85.835,0.247,86.819,2.19
						s-0.33,13.402-1.138,14.217c-0.806,0.817-81.858-0.839-83.56-0.584C836.813,882.667,836.238,881.125,836.238,881.125z"></path></g><g><path fill="#FAB19E" d="M907.514,930.234c-5.231-7.427,0.236-12.994,0.236-12.994s-7.935,11.844-14.995,5.405
						c-7.365-6.716,3.101-19.005,3.101-19.005s-12.824,13.083-19.917,8.796c-5.609-3.388,3.392-21.342,3.392-21.342
						s-10.397,12.092-17.522,7.717c-7.695-4.734-1.238-16.385-1.238-16.385s22.247-29.548,31.57-33.69
						c2.822-1.256,12.138,2.942,11.83,6.201c-0.271,2.831-13.564,22.789-13.564,22.789s20.326-28.547,23.53-29.06
						c2.024-0.332,9.533,5.794,9.895,7.86C924.349,859.458,906.47,888,906.47,888s7.737-7.245,10.726-6.897
						c1.677,0.193,7.774,5.739,8.28,7.145c1,2.804-4.902,10.765-4.902,10.765s5.332-2.79,7.66-1.565
						c1.394,0.738,2.957,1.881,4.391,3.66C936.886,906.386,917.672,944.653,907.514,930.234z"></path><g><g><path fill="#DB8F82" d="M880.642,891.435c1.149,0.793,4.783-2.489,8.113-7.334c3.327-4.839,5.091-9.403,3.941-10.196
								c-1.15-0.789-4.783,2.493-8.113,7.334C881.255,886.081,879.489,890.643,880.642,891.435z"></path></g><g><path fill="#DB8F82" d="M897.933,900.23c1.156,0.786,4.043-1.447,6.449-4.982c2.403-3.538,3.421-7.043,2.264-7.829
								c-1.155-0.786-4.04,1.448-6.445,4.983C897.795,895.94,896.78,899.444,897.933,900.23z"></path></g><g><path fill="#DB8F82" d="M911.173,912.436c1.144,0.799,4.369-1.845,7.196-5.902c2.829-4.059,4.198-7.995,3.051-8.793
								c-1.143-0.804-4.368,1.839-7.197,5.903C911.392,907.7,910.026,911.635,911.173,912.436z"></path></g></g></g><path fill="#E06020" d="M832.55,939.144c0,0-239.019,253.848-242.713,280.147c-5.836,41.58,21.683,80.477,89.187,59.663
					c65.961-20.339,208.302-301.547,208.302-301.547L832.55,939.144z"></path><path fill="#C6501C" d="M887.326 977.407c0 0-134.741 238.638-165.301 266.97C722.026 1244.377 818.464 1161.457 887.326 977.407zM832.55 939.144c0 0-195.416 244.506-210.327 233.864C607.312 1162.366 826.915 941.642 832.55 939.144z"></path></g><g><path fill="#DB8F82" d="M835.628,941.593c-0.557,0.398,0.675,3.378,3.722,7.541c2.985,4.197,8.109,9.397,14.878,13.631
					c6.807,4.18,13.818,6.451,18.998,7.051c5.183,0.691,8.471-0.044,8.443-0.779c-0.008-0.755-2.997-1.384-7.599-2.953
					c-4.615-1.478-10.749-4.087-16.989-7.913C844.577,950.44,837.028,940.533,835.628,941.593z"></path></g></g></g></g><g><g><path fill="#B9C1E1" d="M1858.455,2594.314c-0.203,7.073,44.093,14.09,98.941,15.674
			c54.846,1.582,99.473-2.866,99.677-9.938c0.206-7.073-44.092-14.09-98.938-15.674
			C1903.286,2582.793,1858.659,2587.244,1858.455,2594.314z" opacity=".5"></path><polygon fill="#B9C1E1" points="1878.093 2593.161 2010.402 2593.161 2040.391 2365.189 1848.104 2365.189"></polygon><path fill="#929ED3" d="M1872.684,2552.031c40.143,20.148,92.046,2.354,111.257-12.858c16.072-12.704,56.45-173.981,56.45-173.981
			l-29.864,227.346c0.12,0.216,0.247,0.434,0.247,0.654c0,4.896-29.785,8.865-66.525,8.865c-36.742,0-66.527-3.969-66.527-8.865
			c0-0.247,0.13-0.489,0.278-0.731L1872.684,2552.031z"></path><path fill="#B9C1E1" d="M1848.104,2366.536c0,7.075,43.046,12.81,96.145,12.81c53.096,0,96.142-5.735,96.142-12.81
			c0-7.077-43.046-12.812-96.142-12.812C1891.15,2353.724,1848.104,2359.459,1848.104,2366.536z"></path></g><g><path fill="#DFE4EF" d="M1947.074,2344.025c-32.678-59.141-27.5-171.312-44.978-154.12c-17.475,17.191-18.42,24.615-18.42,24.615
			s-17.039-88.039-43.892-74.841c-26.851,13.193-8.869,69.65-8.869,69.65s-24.172-15.559-31.983-1.905
			c-7.811,13.654,58.758,41.684,58.758,41.684s-26.277,13.932-3.586,32.75c11.746,9.74,35.36,9.508,35.36,9.508L1947.074,2344.025z"></path><path fill="#B9C1E1" d="M1843.445,2228.969l25.059,8.3c-2.91-7.552-5.131-15.276-6.428-23.134
			c1.491,4.98,2.807,9.946,4.875,14.706c1.289,3.142,2.689,6.226,4.141,9.284l0.096,0.031l-0.036,0.091
			c2.663,5.596,5.574,11.062,8.712,16.412l15.796-15.166l-14.253,17.761c13.124,21.766,29.651,41.658,46.128,60.79
			c-13.438-12.661-27.082-27.381-38.53-43.52l-26.578-11.995l23.676,7.842c-6.329-9.385-11.822-19.23-16.088-29.413
			L1843.445,2228.969z"></path></g><g><path fill="#DFE4EF" d="M1955.987,2317.895c22.847-31.079,28.165-94.963,36.795-83.946c8.628,11.017,8.618,15.29,8.618,15.29
			s16.122-48.589,30.35-39.144c14.231,9.445-0.1,40.083-0.1,40.083s14.827-7.029,18.247,1.275
			c3.418,8.302-36.33,19.278-36.33,19.278s13.852,9.819-0.379,18.804c-7.367,4.65-20.717,2.78-20.717,2.78L1955.987,2317.895z"></path><path fill="#B9C1E1" d="M2023.114,2260.376l-14.797,2.857c2.202-4.06,4.026-8.27,5.339-12.625c-1.21,2.711-2.32,5.427-3.841,7.967
			c-0.959,1.685-1.981,3.329-3.027,4.954l-0.056,0.012l0.012,0.053c-1.917,2.969-3.969,5.853-6.138,8.649l-7.827-9.747l6.762,11.103
			c-9.032,11.358-19.85,21.402-30.585,31.024c8.539-6.181,17.344-13.51,25.014-21.807l15.93-4.834l-13.982,2.696
			c4.273-4.845,8.107-10.015,11.271-15.468L2023.114,2260.376z"></path></g><path fill="#B9C1E1" d="M1959.536 2250.608c12.839-5.366 38.81-55.141 29.697-55.433-9.114-.295-22.934 13.704-22.934 13.704s9.407-55.16-3.53-49.278c-12.937 5.879-20.287 31.165-20.287 31.165s-8.434-11.468-14.948-1.763C1921.021 2198.703 1950.717 2254.294 1959.536 2250.608zM1889.266 2324.835c1.495-1.287-30.87-28.079-36.162-20.213-5.294 7.863 9.996 12.512 8.819 13.421-1.174.91-28.519 1.206-24.697 6.792C1841.048 2330.422 1880.741 2332.186 1889.266 2324.835zM1994.997 2337.53c1.323 4.3 64.034-.558 51.567-18.775-6.123-8.947-20.047-3.429-20.047-3.429s18.986-16.819 12.354-16.939c-6.633-.122-30.343 11.29-30.343 11.29s-1.282-7.072-6.605-6.37C1996.602 2304.009 1992.978 2330.978 1994.997 2337.53z"></path></g><g><path fill="#B9C1E1" d="M1781.274,2587.019c0.061,17.306-117.967,31.769-263.63,32.304
		c-145.656,0.53-263.785-13.063-263.848-30.37c-0.069-17.306,117.965-31.769,263.622-32.305
		C1663.081,2556.119,1781.21,2569.718,1781.274,2587.019z" opacity=".5"></path><g><path fill="#929ED3" d="M1368.077,2140.954h338.109c14.735,0,27.411,11.901,28.31,26.583l24.126,394.01
			c0.899,14.679-10.319,26.58-25.054,26.58h-338.109c-14.738,0-27.414-11.901-28.313-26.58l-24.126-394.01
			C1342.121,2152.854,1353.339,2140.954,1368.077,2140.954z"></path><path fill="#DFE4EF" d="M1712.37,2140.954h-339.757c-14.807,0-27.544,12.005-28.448,26.815l-24.244,397.461
			c-0.903,14.808,10.369,26.812,25.177,26.812h339.757c14.81,0,27.548-12.005,28.451-26.812l24.244-397.461
			C1738.453,2152.958,1727.181,2140.954,1712.37,2140.954z"></path><path fill="#B9C1E1" d="M1732.671,2248.181l-5.908,96.854c-89.92,20.859-299.336,69.178-398.947,90.684l5.987-98.14
			L1732.671,2248.181z" opacity=".2"></path><polygon fill="#B9C1E1" points="1326.2 2462.211 1724.548 2381.34 1722.798 2410.029 1323.364 2508.705" opacity=".2"></polygon><path fill="#B9C1E1" d="M1713.106,2128.887h-339.757c-14.807,0-27.544,12.008-28.447,26.815l-3.917,64.202h393.384l3.917-64.202
			C1739.189,2140.895,1727.917,2128.887,1713.106,2128.887z"></path><g><path fill="#929ED3" d="M1411.668,2131.013c-0.356,5.833-4.221,10.562-8.637,10.562c-4.413,0-7.701-4.729-7.345-10.562
				c0.356-5.831,4.221-10.559,8.634-10.559C1408.736,2120.454,1412.024,2125.182,1411.668,2131.013z"></path></g><g><path fill="#929ED3" d="M1680.344,2131.013c-0.356,5.833-4.222,10.562-8.633,10.562c-4.413,0-7.702-4.729-7.346-10.562
				c0.355-5.831,4.221-10.559,8.634-10.559C1677.411,2120.454,1680.699,2125.182,1680.344,2131.013z"></path></g><g><path fill="#B9C1E1" d="M1571.495,2278.866l-22.57,239.709l-59.589-2.741l13.932-174.468l-22.848,15.079l-17.699-46.879
				l46.721-33.438L1571.495,2278.866z"></path></g><g><path fill="#DFE4EF" d="M1451.414 2171.748c-.058.956-.116 1.905-.173 2.846-.057.939-.167 1.889-.32 2.844-.306 2.025-.858 3.943-1.666 5.753-.807 1.808-1.848 3.393-3.123 4.754-1.276 1.362-2.787 2.439-4.539 3.234-1.748.795-3.726 1.192-5.931 1.192-.859 0-1.752-.074-2.674-.218-.924-.146-1.834-.366-2.731-.659-.898-.292-1.753-.651-2.563-1.082-.807-.431-1.52-.928-2.135-1.495l2.124-10.067c.897.923 1.916 1.672 3.047 2.249 1.132.575 2.389.865 3.765.865.893 0 1.652-.131 2.286-.39.631-.259 1.163-.616 1.596-1.072.435-.453.786-.982 1.058-1.592.271-.608.479-1.257.63-1.946.149-.687.254-1.398.324-2.126.07-.73.125-1.451.168-2.163.158-2.58.182-5.144.079-7.698-.103-2.554-.173-5.113-.212-7.674l11.183-.726C1451.787 2161.633 1451.722 2166.692 1451.414 2171.748zM1484.614 2189.697l-12.156 1.554-1.126-5.495h-5.544l-1.548 5.495-12.33-1.213 11.655-32.395 13.562-.679L1484.614 2189.697zM1470.913 2178.315l-1.335-8.462-2.313 8.462H1470.913zM1522.688 2156.916l-3.763 32.976-12.815 1.164-5.731-17.651-2.169 17.992h-10.941l2.975-34.481 12.197-.582 7.345 17.505 1.398-16.536L1522.688 2156.916zM1555.754 2164.746c-.073 1.198-.213 2.521-.411 3.964-.201 1.441-.482 2.934-.834 4.474-.354 1.541-.784 3.1-1.296 4.68-.506 1.582-1.117 3.1-1.819 4.561-.707 1.457-1.506 2.823-2.401 4.097-.901 1.272-1.907 2.385-3.027 3.333-1.121.946-2.352 1.689-3.7 2.236-1.344.541-2.822.816-4.424.816-1.88 0-3.497-.306-4.846-.913-1.348-.608-2.488-1.428-3.412-2.456-.927-1.031-1.664-2.231-2.211-3.597-.549-1.37-.954-2.821-1.219-4.356-.263-1.529-.414-3.095-.455-4.693-.041-1.595-.016-3.131.073-4.607.138-2.27.392-4.536.756-6.797.364-2.259.827-4.518 1.385-6.772l11.355.438c-.594 2.544-1.127 5.103-1.599 7.669-.474 2.572-.791 5.153-.949 7.746-.016.277-.029.685-.036 1.231-.01.541 0 1.149.023 1.82.025.675.075 1.364.153 2.07.08.702.208 1.348.382 1.933.175.584.4 1.061.679 1.436.275.371.617.556 1.025.556.467 0 .904-.223 1.302-.667.401-.446.767-1.044 1.094-1.79.329-.743.628-1.602.901-2.576.269-.972.51-1.988.721-3.038.211-1.054.39-2.108.542-3.162.157-1.054.288-2.036.4-2.941.112-.91.199-1.711.255-2.41.063-.697.1-1.215.121-1.554.077-1.267.136-2.526.168-3.782.038-1.257.053-2.508.047-3.759h11.382C1555.935 2160.172 1555.894 2162.446 1555.754 2164.746zM1587.678 2189.697l-12.157 1.554-1.124-5.495h-5.544l-1.55 5.495-12.329-1.213 11.653-32.395 13.564-.679L1587.678 2189.697zM1573.977 2178.315l-1.332-8.462-2.314 8.462H1573.977zM1620.482 2168.346c-.077 1.264-.258 2.413-.537 3.438-.284 1.028-.685 1.976-1.209 2.833-.519.861-1.178 1.656-1.966 2.382-.791.73-1.733 1.428-2.828 2.094l5.159 10.31-11.075 2.138-3.112-10.358-3.024.097-1.053 10.115h-10.456c.305-3.695.609-7.374.904-11.041.298-3.664.607-7.341.93-11.039.145-1.864.29-3.71.436-5.546.142-1.831.319-3.677.532-5.544 1.158-.421 2.3-.769 3.419-1.046 1.12-.275 2.238-.49 3.357-.641 1.12-.156 2.255-.261 3.399-.318 1.15-.056 2.32-.085 3.521-.085 1.848 0 3.621.257 5.317.765 1.695.51 3.173 1.277 4.442 2.3 1.269 1.018 2.257 2.295 2.964 3.818C1620.312 2164.543 1620.606 2166.318 1620.482 2168.346zM1609.54 2169.123c.042-.682-.013-1.305-.164-1.874-.153-.565-.397-1.054-.737-1.469-.338-.413-.773-.739-1.304-.971-.527-.237-1.158-.354-1.886-.354-.326 0-.643.021-.953.062-.31.041-.614.103-.911.182l-.942 9.044h.585c.698 0 1.411-.088 2.144-.267.734-.177 1.397-.454 1.996-.823.598-.375 1.098-.854 1.498-1.436C1609.263 2170.631 1609.491 2169.934 1609.54 2169.123zM1655.407 2158.861l-14.513 18.675-1.561 15.225h-11.526l1.215-15.128-5.853-18.041 12.495-1.559 1.308 10.505 6.817-10.505L1655.407 2158.861z"></path></g></g></g></svg>